<svg xmlns="http://www.w3.org/2000/svg" viewBox="0 0 500 500"><g id="freepik--background-complete--inject-101"><rect x="416.78" y="398.49" width="33.12" height="0.25" style="fill:#ebebeb"></rect><rect x="322.53" y="401.21" width="8.69" height="0.25" style="fill:#ebebeb"></rect><rect x="396.59" y="389.21" width="19.19" height="0.25" style="fill:#ebebeb"></rect><rect x="52.46" y="390.89" width="43.19" height="0.25" style="fill:#ebebeb"></rect><rect x="104.56" y="390.89" width="6.33" height="0.25" style="fill:#ebebeb"></rect><rect x="131.47" y="395.11" width="93.68" height="0.25" style="fill:#ebebeb"></rect><path d="M237,337.8H43.92a5.71,5.71,0,0,1-5.71-5.71V60.66A5.71,5.71,0,0,1,43.92,55H237a5.71,5.71,0,0,1,5.71,5.71V332.09A5.71,5.71,0,0,1,237,337.8ZM43.92,55.2a5.47,5.47,0,0,0-5.46,5.46V332.09a5.47,5.47,0,0,0,5.46,5.46H237a5.47,5.47,0,0,0,5.46-5.46V60.66A5.47,5.47,0,0,0,237,55.2Z" style="fill:#ebebeb"></path><path d="M453.31,337.8H260.21a5.72,5.72,0,0,1-5.71-5.71V60.66A5.72,5.72,0,0,1,260.21,55h193.1A5.71,5.71,0,0,1,459,60.66V332.09A5.71,5.71,0,0,1,453.31,337.8ZM260.21,55.2a5.47,5.47,0,0,0-5.46,5.46V332.09a5.47,5.47,0,0,0,5.46,5.46h193.1a5.47,5.47,0,0,0,5.46-5.46V60.66a5.47,5.47,0,0,0-5.46-5.46Z" style="fill:#ebebeb"></path><rect y="382.4" width="500" height="0.25" style="fill:#ebebeb"></rect><path d="M95.78,260.35h3v-35.9a15,15,0,0,1,14-15.16,14.75,14.75,0,0,1,15.47,14,.74.74,0,0,0,.73.71h1.54a.73.73,0,0,0,.73-.75,17.77,17.77,0,0,0-17.43-17c-9.93-.17-18,8.29-18,18.22Z" style="fill:#f0f0f0"></path><rect x="59.3" y="264.27" width="21.32" height="118.09" transform="translate(139.92 646.63) rotate(180)" style="fill:#e6e6e6"></rect><rect x="74.8" y="264.27" width="231" height="118.09" transform="translate(380.6 646.63) rotate(180)" style="fill:#f5f5f5"></rect><polygon points="74.8 288.86 305.8 288.86 305.8 290.86 249.05 290.86 249.05 382.36 247.05 382.36 247.05 290.86 191.84 290.86 191.84 382.36 189.84 382.36 189.84 290.86 134.64 290.86 134.64 382.36 132.64 382.36 132.64 290.86 74.8 290.86 74.8 288.86" style="fill:#e0e0e0"></polygon><path d="M254.8,341.36h0a2,2,0,0,0,2-2v-9a2,2,0,0,0-2-2h0a2,2,0,0,0-2,2v9A2,2,0,0,0,254.8,341.36Z" style="fill:#e6e6e6"></path><path d="M241.3,341.36h0a2,2,0,0,0,2-2v-9a2,2,0,0,0-2-2h0a2,2,0,0,0-2,2v9A2,2,0,0,0,241.3,341.36Z" style="fill:#e6e6e6"></path><path d="M140.39,341.36h0a2,2,0,0,0,2-2v-9a2,2,0,0,0-2-2h0a2,2,0,0,0-2,2v9A2,2,0,0,0,140.39,341.36Z" style="fill:#e6e6e6"></path><path d="M126.89,341.36h0a2,2,0,0,0,2-2v-9a2,2,0,0,0-2-2h0a2,2,0,0,0-2,2v9A2,2,0,0,0,126.89,341.36Z" style="fill:#e6e6e6"></path><rect x="54.3" y="261.68" width="26.5" height="5.17" transform="translate(135.1 528.54) rotate(180)" style="fill:#e0e0e0"></rect><rect x="72.8" y="261.68" width="238" height="5.17" transform="translate(383.6 528.54) rotate(180)" style="fill:#ebebeb"></rect><path d="M68.2,262.27h78.89a1.92,1.92,0,0,0,1.92-1.92h0a1.92,1.92,0,0,0-1.92-1.92H68.2a1.92,1.92,0,0,0-1.92,1.92h0A1.92,1.92,0,0,0,68.2,262.27Z" style="fill:#e6e6e6"></path><rect x="88.25" y="255.2" width="2.99" height="3.8" transform="translate(179.48 514.2) rotate(180)" style="fill:#e0e0e0"></rect><polygon points="86.96 256.15 92.52 256.15 91.44 249.5 88.04 249.5 86.96 256.15" style="fill:#f0f0f0"></polygon><rect x="103.37" y="255.2" width="2.99" height="3.8" transform="translate(209.73 514.2) rotate(180)" style="fill:#e0e0e0"></rect><polygon points="102.08 256.15 107.65 256.15 106.56 249.5 103.17 249.5 102.08 256.15" style="fill:#f0f0f0"></polygon><polygon points="169.49 191.68 191.99 191.68 173.89 89.02 151.39 89.02 169.49 191.68" style="fill:#fafafa"></polygon><polygon points="156.4 191.68 162.47 191.68 144.37 89.02 138.3 89.02 156.4 191.68" style="fill:#fafafa"></polygon><polygon points="90.59 193.46 96.83 193.46 78.22 87.96 71.99 87.96 90.59 193.46" style="fill:#fafafa"></polygon><polygon points="103.01 193.46 114.76 193.46 96.16 87.96 84.41 87.96 103.01 193.46" style="fill:#fafafa"></polygon><path d="M134.47,87.43H208v106H134.47Zm67.67,5.81H140.28v94.42h61.86Z" style="fill:#e6e6e6"></path><path d="M58.07,84.52H210.86V196.38H58.07Zm147,5.82H63.88V190.56H205.05Z" style="fill:#f5f5f5"></path><polygon points="326.97 191.68 304.47 191.68 322.57 89.02 345.07 89.02 326.97 191.68" style="fill:#fafafa"></polygon><polygon points="340.06 191.68 334 191.68 352.1 89.02 358.16 89.02 340.06 191.68" style="fill:#fafafa"></polygon><polygon points="405.87 193.46 399.63 193.46 418.24 87.96 424.47 87.96 405.87 193.46" style="fill:#fafafa"></polygon><polygon points="393.45 193.46 381.7 193.46 400.3 87.96 412.05 87.96 393.45 193.46" style="fill:#fafafa"></polygon><path d="M362,193.47H288.5v-106H362Zm-67.68-5.81h61.86V93.24H294.32Z" style="fill:#e6e6e6"></path><path d="M438.39,196.38H285.6V84.52H438.39Zm-147-5.82H432.58V90.34H291.41Z" style="fill:#f5f5f5"></path><circle cx="249.3" cy="100.14" r="20.45" transform="translate(119.45 335.34) rotate(-82.98)" style="fill:#e0e0e0"></circle><circle cx="248.12" cy="98.95" r="20.45" transform="translate(110.7 328.02) rotate(-80.78)" style="fill:#f0f0f0"></circle><circle cx="247.87" cy="98.95" r="16.41" style="fill:#fafafa"></circle><path d="M249.49,100.31a1.67,1.67,0,1,1-1.66-1.66A1.66,1.66,0,0,1,249.49,100.31Z" style="fill:#e0e0e0"></path><polygon points="247.64 100.93 240.58 94.28 241.26 93.55 247.66 99.57 259.12 89.44 259.79 90.19 247.64 100.93" style="fill:#e0e0e0"></polygon><rect x="390.41" y="311.61" width="42.25" height="6.5" transform="translate(823.08 629.71) rotate(180)" style="fill:#e0e0e0"></rect><path d="M389.16,315.36h46a0,0,0,0,1,0,0v63.73a3.27,3.27,0,0,1-3.27,3.27H392.44a3.27,3.27,0,0,1-3.27-3.27V315.36A0,0,0,0,1,389.16,315.36Z" transform="translate(824.33 697.71) rotate(180)" style="fill:#f0f0f0"></path><rect x="389.16" y="303.61" width="46" height="10" rx="3.61" transform="translate(824.33 617.21) rotate(180)" style="fill:#f0f0f0"></rect><polygon points="421.66 382.36 443.16 382.36 443.16 379.36 421.66 377.36 421.66 382.36" style="fill:#e0e0e0"></polygon></g><g id="freepik--Shadow--inject-101"><ellipse id="freepik--path--inject-101" cx="245.18" cy="412.39" rx="193.89" ry="11.32" style="fill:#f5f5f5"></ellipse></g><g id="freepik--Desk--inject-101"><path d="M221.51,233.56h3.77a0,0,0,0,1,0,0v11.76a1.87,1.87,0,0,1-1.87,1.87h0a1.87,1.87,0,0,1-1.87-1.87V233.56A0,0,0,0,1,221.51,233.56Z" transform="translate(531.19 354.12) rotate(153.18)" style="fill:#263238"></path><path d="M221.51,233.56h3.77a0,0,0,0,1,0,0v11.76a1.87,1.87,0,0,1-1.87,1.87h0a1.87,1.87,0,0,1-1.87-1.87V233.56A0,0,0,0,1,221.51,233.56Z" transform="translate(531.19 354.12) rotate(153.18)" style="fill:#fff;opacity:0.30000000000000004"></path><rect x="221.64" y="248.54" width="3.5" height="34.12" transform="translate(446.78 531.2) rotate(180)" style="fill:#263238"></rect><rect x="231.04" y="248.54" width="3.5" height="3.85" transform="translate(465.59 500.93) rotate(180)" style="fill:#263238"></rect><rect x="221.64" y="248.54" width="3.5" height="34.12" transform="translate(446.78 531.2) rotate(180)" style="opacity:0.2"></rect><rect x="231.04" y="248.54" width="3.5" height="3.85" transform="translate(465.59 500.93) rotate(180)" style="opacity:0.2"></rect><rect x="229.82" y="242.9" width="2.8" height="5.64" transform="translate(462.43 491.44) rotate(180)" style="fill:#263238"></rect><path d="M217.27,248.54h12.55V242.9l-11.14,2.39a1.8,1.8,0,0,0-1.41,1.75Z" style="fill:#263238"></path><path d="M217.27,248.54h12.55V242.9l-11.14,2.39a1.8,1.8,0,0,0-1.41,1.75Z" style="fill:#fff;opacity:0.2"></path><path d="M230.48,254.63l4-1.87a.19.19,0,0,0-.08-.37h-9.15a.19.19,0,0,0-.08.37l4,1.87A1.55,1.55,0,0,0,230.48,254.63Z" style="fill:#263238"></path><path d="M228,255.7v1.71a1.79,1.79,0,0,0,1.79,1.79h0a1.79,1.79,0,0,0,1.78-1.79V255.7a1.79,1.79,0,0,0-1.78-1.79h0A1.79,1.79,0,0,0,228,255.7Z" style="fill:#263238"></path><path d="M228,255.7v1.71a1.79,1.79,0,0,0,1.79,1.79h0a1.79,1.79,0,0,0,1.78-1.79V255.7a1.79,1.79,0,0,0-1.78-1.79h0A1.79,1.79,0,0,0,228,255.7Z" style="fill:#fff;opacity:0.6000000000000001"></path><path d="M231.59,255.68l.66,1.59a1.79,1.79,0,0,0,2.34,1h0a1.79,1.79,0,0,0,1-2.34l-.65-1.58a1.79,1.79,0,0,0-2.34-1h0A1.79,1.79,0,0,0,231.59,255.68Z" style="fill:#263238"></path><path d="M228,255.68l-.66,1.59a1.79,1.79,0,0,1-2.34,1h0a1.79,1.79,0,0,1-1-2.34l.65-1.58a1.79,1.79,0,0,1,2.34-1h0A1.78,1.78,0,0,1,228,255.68Z" style="fill:#263238"></path><g style="opacity:0.30000000000000004"><path d="M231.59,255.68l.66,1.59a1.79,1.79,0,0,0,2.34,1h0a1.79,1.79,0,0,0,1-2.34l-.65-1.58a1.79,1.79,0,0,0-2.34-1h0A1.79,1.79,0,0,0,231.59,255.68Z" style="fill:#fff"></path><path d="M228,255.68l-.66,1.59a1.79,1.79,0,0,1-2.34,1h0a1.79,1.79,0,0,1-1-2.34l.65-1.58a1.79,1.79,0,0,1,2.34-1h0A1.78,1.78,0,0,1,228,255.68Z" style="fill:#fff"></path></g><path d="M221.64,282.66H209.79a1.62,1.62,0,0,1-1.58-2l6.88-30.84a1.67,1.67,0,0,1,1.64-1.31H231v3.85h-9.4Z" style="fill:#263238"></path><path d="M221.64,282.66H209.79a1.62,1.62,0,0,1-1.58-2l6.88-30.84a1.67,1.67,0,0,1,1.64-1.31H231v3.85h-9.4Z" style="fill:#fff;opacity:0.30000000000000004"></path><rect x="227.91" y="266.14" width="14.21" height="2.77" transform="translate(470.03 535.05) rotate(180)" style="fill:#263238"></rect><rect x="213.71" y="266.14" width="14.21" height="2.77" transform="translate(441.62 535.05) rotate(180)" style="fill:#263238"></rect><rect x="227.91" y="266.14" width="14.21" height="2.77" transform="translate(470.03 535.05) rotate(180)" style="fill:#fff;opacity:0.7000000000000001"></rect><rect x="213.71" y="266.14" width="14.21" height="2.77" transform="translate(441.62 535.05) rotate(180)" style="fill:#fff;opacity:0.5"></rect><polygon points="179.42 290.37 179.42 415.95 176.16 415.95 173.26 296.47 169.42 296.47 169.42 290.37 179.42 290.37" style="fill:#263238"></polygon><polygon points="176.53 415.95 173.42 415.95 169.42 290.38 173.53 290.38 176.53 415.95" style="fill:#263238"></polygon><g style="opacity:0.30000000000000004"><polygon points="175.93 415.95 173.42 415.95 169.71 296.61 173.21 296.61 175.93 415.95" style="fill:#fff"></polygon></g><polygon points="179.42 290.37 179.42 415.95 176.16 415.95 173.26 296.47 169.42 296.47 169.42 290.37 179.42 290.37" style="fill:#fff;opacity:0.5"></polygon><polygon points="374.99 415.95 371.89 415.95 367.89 290.38 371.99 290.38 374.99 415.95" style="fill:#263238"></polygon><polygon points="374.99 415.95 371.89 415.95 367.89 290.38 371.99 290.38 374.99 415.95" style="fill:#fff;opacity:0.30000000000000004"></polygon><polygon points="324.89 290.38 324.89 415.95 328.18 415.95 332.04 296.47 371.73 296.47 374.63 415.95 377.89 415.95 377.89 290.38 324.89 290.38" style="fill:#263238"></polygon><polygon points="324.89 290.38 324.89 415.95 328.18 415.95 332.04 296.47 371.73 296.47 374.63 415.95 377.89 415.95 377.89 290.38 324.89 290.38" style="fill:#fff;opacity:0.5"></polygon><polygon points="324.89 415.95 321.78 415.95 320.78 290.38 324.89 290.38 324.89 415.95" style="fill:#263238"></polygon><polygon points="324.89 415.95 321.78 415.95 320.78 290.38 324.89 290.38 324.89 415.95" style="fill:#fff;opacity:0.30000000000000004"></polygon><polygon points="169.22 290.37 169.22 296.47 133.38 296.47 129.51 415.95 126.22 415.95 126.22 290.37 169.22 290.37" style="fill:#263238"></polygon><polygon points="169.22 290.37 169.22 296.47 133.38 296.47 129.51 415.95 126.22 415.95 126.22 290.37 169.22 290.37" style="fill:#fff;opacity:0.5"></polygon><polygon points="169.22 290.37 169.22 296.47 133.38 296.47 129.51 415.95 126.22 415.95 126.22 290.37 169.22 290.37" style="fill:none;opacity:0.30000000000000004"></polygon><polygon points="126.22 415.95 123.11 415.95 122.11 290.38 126.22 290.38 126.22 415.95" style="fill:#263238"></polygon><g style="opacity:0.30000000000000004"><polygon points="126.22 415.95 123.11 415.95 122.11 290.38 126.22 290.38 126.22 415.95" style="fill:#fff"></polygon></g><rect x="116.68" y="282.71" width="205.65" height="7.67" style="fill:#263238"></rect><rect x="116.68" y="282.71" width="205.65" height="7.67" style="fill:#fff;opacity:0.6000000000000001"></rect><rect x="317.55" y="282.71" width="65.78" height="7.67" style="fill:#263238"></rect><rect x="317.55" y="282.71" width="65.78" height="7.67" style="fill:#fff;opacity:0.8"></rect><path d="M160.91,244.42h-3.23a1.76,1.76,0,0,0-1.76,1.77v0a1.77,1.77,0,0,0,1,1.56v28.4a2,2,0,0,0,2,2h.8a2,2,0,0,0,2-2v-28.4a1.77,1.77,0,0,0,.95-1.56v0A1.76,1.76,0,0,0,160.91,244.42Z" style="fill:#263238"></path><path d="M160.91,244.42h-3.23a1.76,1.76,0,0,0-1.76,1.77v0a1.77,1.77,0,0,0,1,1.56v28.4a2,2,0,0,0,2,2h.8a2,2,0,0,0,2-2v-28.4a1.77,1.77,0,0,0,.95-1.56v0A1.76,1.76,0,0,0,160.91,244.42Z" style="fill:#fff;opacity:0.6000000000000001"></path><path d="M156.6,244.81a5.69,5.69,0,0,0,2.7.45,5.75,5.75,0,0,0,2.7-.45,1.75,1.75,0,0,0-1.09-.39h-3.23A1.72,1.72,0,0,0,156.6,244.81Z" style="fill:#263238"></path><path d="M159.3,261.1c-.84,0-1.51-.21-1.53-.48v15.55a1.13,1.13,0,0,0,1.13,1.12h.8a1.12,1.12,0,0,0,1.12-1.12V260.62C160.8,260.89,160.13,261.1,159.3,261.1Z" style="fill:#7E57C2"></path><path d="M160.83,260.61c0,.27-.69.49-1.53.49s-1.53-.22-1.53-.49.68-.48,1.53-.48S160.83,260.34,160.83,260.61Z" style="fill:#263238"></path><path d="M160.83,260.61c0,.27-.69.49-1.53.49s-1.53-.22-1.53-.49.68-.48,1.53-.48S160.83,260.34,160.83,260.61Z" style="fill:#7E57C2"></path><g style="opacity:0.8"><path d="M157.75,248v28.2a.45.45,0,0,0,.9,0V248a.45.45,0,0,0-.9,0Z" style="fill:#fff"></path></g><path d="M173.37,244.42h-3.22a1.77,1.77,0,0,0-1.77,1.77v0a1.77,1.77,0,0,0,1,1.56v28.4a2,2,0,0,0,2,2h.8a2,2,0,0,0,2-2v-28.4a1.77,1.77,0,0,0,.95-1.56v0A1.76,1.76,0,0,0,173.37,244.42Z" style="fill:#263238"></path><path d="M173.37,244.42h-3.22a1.77,1.77,0,0,0-1.77,1.77v0a1.77,1.77,0,0,0,1,1.56v28.4a2,2,0,0,0,2,2h.8a2,2,0,0,0,2-2v-28.4a1.77,1.77,0,0,0,.95-1.56v0A1.76,1.76,0,0,0,173.37,244.42Z" style="fill:#fff;opacity:0.6000000000000001"></path><path d="M169.06,244.81a5.69,5.69,0,0,0,2.7.45,5.75,5.75,0,0,0,2.7-.45,1.75,1.75,0,0,0-1.09-.39h-3.22A1.73,1.73,0,0,0,169.06,244.81Z" style="fill:#263238"></path><path d="M171.76,255.59c-.84,0-1.51-.21-1.53-.48v21.06a1.13,1.13,0,0,0,1.13,1.12h.8a1.12,1.12,0,0,0,1.12-1.12V255.11C173.27,255.38,172.59,255.59,171.76,255.59Z" style="fill:#7E57C2"></path><path d="M173.29,255.1c0,.27-.69.49-1.53.49s-1.53-.22-1.53-.49.68-.49,1.53-.49S173.29,254.83,173.29,255.1Z" style="fill:#263238"></path><path d="M173.29,255.1c0,.27-.69.49-1.53.49s-1.53-.22-1.53-.49.68-.49,1.53-.49S173.29,254.83,173.29,255.1Z" style="fill:#7E57C2"></path><g style="opacity:0.8"><path d="M170.21,248v28.2a.45.45,0,0,0,.9,0V248a.45.45,0,0,0-.9,0Z" style="fill:#fff"></path></g><path d="M185.83,244.42h-3.22a1.76,1.76,0,0,0-1.76,1.77v0a1.75,1.75,0,0,0,1,1.56v28.4a2,2,0,0,0,2,2h.8a2,2,0,0,0,2-2v-28.4a1.75,1.75,0,0,0,1-1.56v0A1.76,1.76,0,0,0,185.83,244.42Z" style="fill:#263238"></path><path d="M185.83,244.42h-3.22a1.76,1.76,0,0,0-1.76,1.77v0a1.75,1.75,0,0,0,1,1.56v28.4a2,2,0,0,0,2,2h.8a2,2,0,0,0,2-2v-28.4a1.75,1.75,0,0,0,1-1.56v0A1.76,1.76,0,0,0,185.83,244.42Z" style="fill:#fff;opacity:0.6000000000000001"></path><path d="M181.52,244.81a8.33,8.33,0,0,0,5.4,0,1.75,1.75,0,0,0-1.09-.39h-3.22A1.73,1.73,0,0,0,181.52,244.81Z" style="fill:#263238"></path><path d="M184.22,261.1c-.83,0-1.51-.21-1.52-.48v15.55a1.12,1.12,0,0,0,1.12,1.12h.8a1.12,1.12,0,0,0,1.12-1.12V260.62C185.73,260.89,185.05,261.1,184.22,261.1Z" style="fill:#7E57C2"></path><path d="M185.75,260.61c0,.27-.69.49-1.53.49s-1.53-.22-1.53-.49.69-.48,1.53-.48S185.75,260.34,185.75,260.61Z" style="fill:#263238"></path><path d="M185.75,260.61c0,.27-.69.49-1.53.49s-1.53-.22-1.53-.49.69-.48,1.53-.48S185.75,260.34,185.75,260.61Z" style="fill:#7E57C2"></path><g style="opacity:0.8"><path d="M182.67,248v28.2a.45.45,0,0,0,.9,0V248a.45.45,0,0,0-.9,0Z" style="fill:#fff"></path></g><path d="M193.86,252a1,1,0,0,0,1-1v-1a1,1,0,0,0-1-1h-56a1,1,0,0,0-1,1v1a1,1,0,0,0,1,1h1.58v28h-1.58a1,1,0,0,0-1,1v1a1,1,0,0,0,1,1h56a1,1,0,0,0,1-1v-1a1,1,0,0,0-1-1h-1.58V252Zm-4.12,28h-47.8V252h47.8Z" style="fill:#263238"></path><path d="M193.86,252a1,1,0,0,0,1-1v-1a1,1,0,0,0-1-1h-56a1,1,0,0,0-1,1v1a1,1,0,0,0,1,1h1.58v28h-1.58a1,1,0,0,0-1,1v1a1,1,0,0,0,1,1h56a1,1,0,0,0,1-1v-1a1,1,0,0,0-1-1h-1.58V252Zm-4.12,28h-47.8V252h47.8Z" style="fill:#fff;opacity:0.4"></path><path d="M338.72,279.65l-5.82-16H316l1.28,15a1.5,1.5,0,0,1-1.47,1.58h-7.38a.81.81,0,0,0-.78.71l-.07.8a.65.65,0,0,0,.66.72H338a.87.87,0,0,0,.84-.78l.07-.83A2.66,2.66,0,0,0,338.72,279.65Zm-7.08.55h-8.09a1,1,0,0,1-1-.9l-.6-7.05a1.2,1.2,0,0,1,1.18-1.27h6.12a1,1,0,0,1,.93.64l2.57,7.05A1.18,1.18,0,0,1,331.64,280.2Z" style="fill:#263238"></path><path d="M338.72,279.65l-5.82-16H316l1.28,15a1.5,1.5,0,0,1-1.47,1.58h-7.38a.81.81,0,0,0-.78.71l-.07.8a.65.65,0,0,0,.66.72H338a.87.87,0,0,0,.84-.78l.07-.83A2.66,2.66,0,0,0,338.72,279.65Zm-7.08.55h-8.09a1,1,0,0,1-1-.9l-.6-7.05a1.2,1.2,0,0,1,1.18-1.27h6.12a1,1,0,0,1,.93.64l2.57,7.05A1.18,1.18,0,0,1,331.64,280.2Z" style="fill:#fff;opacity:0.2"></path><path d="M324.09,271h-.95a1.2,1.2,0,0,0-1.18,1.27l.6,7.05a1,1,0,0,0,1,.9h.95a1,1,0,0,1-1-.9l-.61-7.05A1.2,1.2,0,0,1,324.09,271Z" style="fill:#263238"></path><path d="M339.67,279.65l-5.82-16h-1l5.82,16a2.66,2.66,0,0,1,.15,1.19l-.07.83a.87.87,0,0,1-.84.78h1a.86.86,0,0,0,.84-.78l.08-.83A2.82,2.82,0,0,0,339.67,279.65Z" style="fill:#263238"></path><g style="opacity:0.2"><path d="M324.09,271h-.95a1.2,1.2,0,0,0-1.18,1.27l.6,7.05a1,1,0,0,0,1,.9h.95a1,1,0,0,1-1-.9l-.61-7.05A1.2,1.2,0,0,1,324.09,271Z"></path><path d="M339.67,279.65l-5.82-16h-1l5.82,16a2.66,2.66,0,0,1,.15,1.19l-.07.83a.87.87,0,0,1-.84.78h1a.86.86,0,0,0,.84-.78l.08-.83A2.82,2.82,0,0,0,339.67,279.65Z"></path></g><polygon points="332.9 263.68 316.04 263.68 316.37 267.5 334.29 267.5 332.9 263.68" style="opacity:0.2"></polygon><path d="M362,265.36H290.07a2.37,2.37,0,0,1-2.4-2.63l4.55-52a2.92,2.92,0,0,1,2.86-2.63H367a2.37,2.37,0,0,1,2.4,2.63l-4.55,52A2.92,2.92,0,0,1,362,265.36Z" style="fill:#263238"></path><path d="M362,265.36H290.07a2.37,2.37,0,0,1-2.4-2.63l4.55-52a2.92,2.92,0,0,1,2.86-2.63H367a2.37,2.37,0,0,1,2.4,2.63l-4.55,52A2.92,2.92,0,0,1,362,265.36Z" style="fill:#fff;opacity:0.5"></path><path d="M288.16,257.11l-.49,5.62a2.37,2.37,0,0,0,2.4,2.63H362a2.92,2.92,0,0,0,2.85-2.63l.5-5.62Z" style="fill:#263238"></path><path d="M288.16,257.11l-.49,5.62a2.37,2.37,0,0,0,2.4,2.63H362a2.92,2.92,0,0,0,2.85-2.63l.5-5.62" style="fill:#fff;opacity:0.7000000000000001"></path><path d="M362.81,255.52H291a1.29,1.29,0,0,1-1.3-1.43l3.75-43a1.59,1.59,0,0,1,1.55-1.43h71.84a1.29,1.29,0,0,1,1.3,1.43l-3.76,43A1.59,1.59,0,0,1,362.81,255.52Z" style="fill:#263238"></path><path d="M362.81,255.52H291a1.29,1.29,0,0,1-1.3-1.43l3.75-43a1.59,1.59,0,0,1,1.55-1.43h71.84a1.29,1.29,0,0,1,1.3,1.43l-3.76,43A1.59,1.59,0,0,1,362.81,255.52Z" style="fill:#fff;opacity:0.4"></path><path d="M368.59,208.12H367a2.37,2.37,0,0,1,2.4,2.63l-4.55,52a2.92,2.92,0,0,1-2.85,2.63h1.59a2.93,2.93,0,0,0,2.86-2.63l4.54-52A2.37,2.37,0,0,0,368.59,208.12Z" style="fill:#263238"></path><path d="M368.59,208.12H367a2.37,2.37,0,0,1,2.4,2.63l-4.55,52a2.92,2.92,0,0,1-2.85,2.63h1.59a2.93,2.93,0,0,0,2.86-2.63l4.54-52A2.37,2.37,0,0,0,368.59,208.12Z" style="fill:#fff;opacity:0.2"></path><g style="opacity:0.30000000000000004"><polygon points="338.51 209.71 335.75 209.71 326.01 255.52 328.78 255.52 338.51 209.71" style="fill:#fff"></polygon><polygon points="310.41 255.52 320.14 209.71 309.76 209.71 300.03 255.52 310.41 255.52" style="fill:#fff"></polygon></g><path d="M303,207.15h16.75a.13.13,0,0,0,0-.25H303a.13.13,0,0,0,0,.25Z" style="fill:#263238"></path><path d="M322.12,207.15h3c.15,0,.16-.25,0-.25h-3a.13.13,0,0,0,0,.25Z" style="fill:#263238"></path></g><g id="freepik--Character--inject-101"><path d="M284.26,418.38c6.67-.54,9.21-.85,13-1.28,3.22-.38,3.94,0,6.5-.28,2.15-.23,2.35-2.32,2-4.68-.16-1.18-.68-4.07-.88-6l-8.13.16c-1.73,2.78-9.54,7.35-13.35,8.21C279.73,415.25,281.6,418.59,284.26,418.38Z" style="fill:#263238"></path><path d="M289.73,258l-19.89,2.11s1.19,69.14,4.23,76.31,21,71.15,21,71.15l9.7-1.37s-4.94-71.53-13.08-80.76l4-41.79S303,264.05,289.73,258Z" style="fill:#7E57C2"></path><path d="M285.35,334.57c1.43-.05,16.79,42.22,16.79,42.22s-3.43-38.56-6.45-42.88S285.35,334.57,285.35,334.57Z" style="opacity:0.1"></path><path d="M290,253.8s19.31.82,20.29.52,10.75,8,8.78,22.14-14.87,52.19-14.87,52.19,9.74,9.88,14.57,22.57l10.15,44L322,399.89l-30.95-57.08a26.69,26.69,0,0,1-5.44-17.88Z" style="fill:#7E57C2"></path><path d="M290,253.8s19.31.82,20.29.52,10.75,8,8.78,22.14-14.87,52.19-14.87,52.19,9.74,9.88,14.57,22.57l10.15,44L322,399.89l-30.95-57.08a26.69,26.69,0,0,1-5.44-17.88Z" style="fill:#fff;opacity:0.1"></path><path d="M318.62,416.9c5.18-4.23,7.1-5.93,10-8.42,2.43-2.14,3.22-2.26,5.18-3.93,1.64-1.41.62-3.24-1-5-.81-.88-2.88-3-4.13-4.43L322,399.89c.16,3.27-3.67,11.47-6.32,14.34C313.12,416.9,316.55,418.58,318.62,416.9Z" style="fill:#263238"></path><path d="M256,146.3h-3.63a2,2,0,0,0-2,2v0a2,2,0,0,0,1.07,1.75v11.18a2.28,2.28,0,0,0,2.28,2.28h.89a2.28,2.28,0,0,0,2.28-2.28V150.06a2,2,0,0,0,1.07-1.75v0A2,2,0,0,0,256,146.3Z" style="fill:#7E57C2"></path><path d="M256,146.3h-3.63a2,2,0,0,0-2,2v0a2,2,0,0,0,1.07,1.75v11.18a2.28,2.28,0,0,0,2.28,2.28h.89a2.28,2.28,0,0,0,2.28-2.28V150.06a2,2,0,0,0,1.07-1.75v0A2,2,0,0,0,256,146.3Z" style="fill:#fff;opacity:0.6000000000000001"></path><path d="M251.1,146.74a9.29,9.29,0,0,0,6.07,0,2,2,0,0,0-1.22-.44h-3.63A1.94,1.94,0,0,0,251.1,146.74Z" style="fill:#7E57C2"></path><path d="M254.13,153.91c-.93,0-1.69-.24-1.71-.54v7.87a1.27,1.27,0,0,0,1.27,1.27h.89a1.27,1.27,0,0,0,1.27-1.27v-7.87C255.83,153.67,255.07,153.91,254.13,153.91Z" style="fill:#7E57C2"></path><ellipse cx="254.13" cy="153.36" rx="1.72" ry="0.55" style="fill:#7E57C2"></ellipse><ellipse cx="254.13" cy="153.36" rx="1.72" ry="0.55" style="opacity:0.30000000000000004"></ellipse><g style="opacity:0.8"><path d="M252.4,150.3v10.94a.51.51,0,0,0,1,0V150.3a.51.51,0,0,0-1,0Z" style="fill:#fff"></path></g><path d="M259.41,145.88l-1.59,4.44a2.64,2.64,0,0,1-2.35,1.74l-5.6.26-1.36,7.45-7.76.35,2.35-9.07a20.46,20.46,0,0,1,2.94-6.12v0l1.48-2.28a2.65,2.65,0,0,1,2.63-1.18l2.22.35a2.69,2.69,0,0,0,1,0l2.58-.56a2.64,2.64,0,0,1,3,1.68l.45,1.19A2.65,2.65,0,0,1,259.41,145.88Z" style="fill:#7E57C2"></path><path d="M278.92,181.12a4.59,4.59,0,0,0-4.16-4.38c-24.6-1.84-23.68-10.8-23.68-10.8a54,54,0,0,1-.4-5.69,2.24,2.24,0,0,0-2.23-2.18l-6.92,0a2.23,2.23,0,0,0-2.2,1.72c-.94,4-1.37,12.7,3.73,18.55,5.45,6.24,29.77,13.16,33.58,10.82C278.82,187.76,279.09,184.05,278.92,181.12Z" style="fill:#7E57C2"></path><g style="opacity:0.7000000000000001"><path d="M278.92,181.12a4.59,4.59,0,0,0-4.16-4.38c-24.6-1.84-23.68-10.8-23.68-10.8a54,54,0,0,1-.4-5.69,2.24,2.24,0,0,0-2.23-2.18l-6.92,0a2.23,2.23,0,0,0-2.2,1.72c-.94,4-1.37,12.7,3.73,18.55,5.45,6.24,29.77,13.16,33.58,10.82C278.82,187.76,279.09,184.05,278.92,181.12Z" style="fill:#fff"></path></g><path d="M251.1,183.06l21,3.15v3.36S257.93,187.85,251.1,183.06Z" style="opacity:0.2"></path><g id="freepik--freepik--character-1--inject-4--inject-101"><path d="M288.87,191c1.33.47,16.49-12.49,13.94-13.41-5.06-.75-4.27-5.53-3.91-8a18.94,18.94,0,0,1,1.29-5.13l-10.25,2.49a30,30,0,0,1,.65,4.33,15.09,15.09,0,0,1,0,2.23c.05,1.41-1.29,3.49-4.45,3.21C284,177.18,287.36,191.26,288.87,191Z" style="fill:#ffc3bd"></path><path d="M263.51,291.83c29.71,10.91,58.73-5.75,58.73-5.75.31-16-5.55-50.58-5.55-50.58-.1-1.74-.19-3.45-.28-5.17-.05-1-.1-1.91-.06-2.86-.1-12.88,1.44-31.36,4.52-43.86A20.07,20.07,0,0,0,307.29,178l-1.79-2L292,182.88l-6-8.31c-.65-1.32-3.4,1.48-3.4,1.48l-10.38.57c-6.54,12.4,0,38.38,0,38.38-.06.8-.12,1.61-.19,2.44C269.7,246.54,263.51,291.83,263.51,291.83Z" style="fill:#7E57C2"></path><path d="M263.51,291.83c29.71,10.91,58.73-5.75,58.73-5.75.31-16-5.55-50.58-5.55-50.58-.1-1.74-.19-3.45-.28-5.17-.05-1-.1-1.91-.06-2.86-.1-12.88,1.44-31.36,4.52-43.86A20.07,20.07,0,0,0,307.29,178l-1.79-2L292,182.88l-6-8.31c-.65-1.32-3.4,1.48-3.4,1.48l-10.38.57c-6.54,12.4,0,38.38,0,38.38-.06.8-.12,1.61-.19,2.44C269.7,246.54,263.51,291.83,263.51,291.83Z" style="fill:#fff;opacity:0.7000000000000001"></path><path d="M290.59,171.27a15.09,15.09,0,0,1,0,2.23,11.76,11.76,0,0,0,8.32-3.92,18.94,18.94,0,0,1,1.29-5.13l-10.25,2.49A30,30,0,0,1,290.59,171.27Z" style="opacity:0.2"></path><path d="M309.19,198.26l-10.58-.77a.73.73,0,0,1-.71-.75.49.49,0,0,1,0-.12l.92-5a1,1,0,0,1,1-.74l10.57.77a.72.72,0,0,1,.71.73.49.49,0,0,1,0,.12l-.92,5A1,1,0,0,1,309.19,198.26Z" style="fill:#fff"></path><path d="M295.8,139.76s-12.21-1.19-14.08,7.92A16.81,16.81,0,0,0,286,163.15Z" style="fill:#263238"></path><path d="M293.66,141.78c-8.35,0-11,4.46-11.67,13.07-.77,10.75,1.61,18.4,12.05,16.11C308.24,167.87,307.54,141.8,293.66,141.78Z" style="fill:#ffc3bd"></path><path d="M287.19,154a17.68,17.68,0,0,1-3,3,2.31,2.31,0,0,0,2,1.28Z" style="fill:#d4827d"></path><path d="M296.76,150.66a.3.3,0,0,0,.18-.06.32.32,0,0,0,.08-.46,4.7,4.7,0,0,0-3.61-2,.3.3,0,0,0-.34.32.32.32,0,0,0,.31.34,4,4,0,0,1,3.11,1.72A.32.32,0,0,0,296.76,150.66Z" style="fill:#263238"></path><path d="M284.08,147.54a.32.32,0,0,0,.16,0,3.55,3.55,0,0,1,3.1-.11.32.32,0,0,0,.27-.59,4.21,4.21,0,0,0-3.68.12.34.34,0,0,0-.14.45A.34.34,0,0,0,284.08,147.54Z" style="fill:#263238"></path><path d="M302.79,155.88s-3.91-6.87-3.31-12.16c0,0-16.55-6.79-17.38,10,0,0-1.6-14.88,12.76-15.25,17.77-.45,14.27,20.7,6.86,27C301.76,165.44,305.2,160.18,302.79,155.88Z" style="fill:#263238"></path><path d="M281.21,157c1.38-2.15,10.42-.89,18.86.1,0,.11,0,.22,0,.33,2-3,4.26-3.42,5.92-1.1-2.3-2-4.19-.94-5.8,1.67a23.73,23.73,0,0,1,.42,7.79c2.31-1.42,3.91-4.51,5.53-7.77-1.53,3.81-3.15,7.43-5.68,8.8,0,.25-.08.51-.13.76-4.32,4.1-11.73,5.19-15.75,2C281.77,167.06,280.93,162.57,281.21,157Z" style="fill:#7E57C2"></path><path d="M281.21,157c1.38-2.15,10.42-.89,18.86.1,0,.11,0,.22,0,.33,2-3,4.26-3.42,5.92-1.1-2.3-2-4.19-.94-5.8,1.67a23.73,23.73,0,0,1,.42,7.79c2.31-1.42,3.91-4.51,5.53-7.77-1.53,3.81-3.15,7.43-5.68,8.8,0,.25-.08.51-.13.76-4.32,4.1-11.73,5.19-15.75,2C281.77,167.06,280.93,162.57,281.21,157Z" style="fill:#fff;opacity:0.6000000000000001;isolation:isolate"></path><path d="M291.71,153.39c-.08.68.12,1.3.57,1.38s.92-.38,1.05-1.05-.12-1.3-.57-1.38S291.84,152.72,291.71,153.39Z" style="fill:#263238"></path><path d="M292.94,152.4l-1.35-.85S292.07,152.94,292.94,152.4Z" style="fill:#263238"></path><path d="M284.15,152.4c-.08.68.12,1.29.57,1.38s.92-.38,1.06-1.07-.13-1.28-.58-1.37S284.28,151.69,284.15,152.4Z" style="fill:#263238"></path><path d="M285.38,151.41l-1.35-.87S284.52,151.92,285.38,151.41Z" style="fill:#263238"></path><path d="M307.43,158.32a6.31,6.31,0,0,1-3.17,3.75c-2,1-3.43-.69-3.23-2.81.19-1.89,1.46-4.7,3.64-4.83a2.87,2.87,0,0,1,2.95,2.79A2.74,2.74,0,0,1,307.43,158.32Z" style="fill:#ffc3bd"></path><path d="M304.49,159.49c1.26-5.7-3-14.18-12-14.78-11.48-1.82-10.91,8.66-10.91,8.66s-2.32-8.24,5.71-14.47c0,0,.28-5.35,14.49-3.8,7.76.85,10,9.14,10.28,13.66.55,7.47-5.92,14-5.92,14,.46,1.71-3.21,1.91-3.21,1.91C303.9,163.29,304.09,161.11,304.49,159.49Z" style="fill:#fff;opacity:0.8"></path></g><path d="M320.7,183.2s12.46,29,9.47,42-24.44-1.51-24.44-1.51l-.7-7.35,11.65.25-4.07-18.8C313.15,192.18,318.62,185.3,320.7,183.2Z" style="fill:#7E57C2"></path><path d="M320.7,183.2s12.46,29,9.47,42-24.44-1.51-24.44-1.51l-.7-7.35,11.65.25-4.07-18.8C313.15,192.18,318.62,185.3,320.7,183.2Z" style="fill:#fff;opacity:0.7000000000000001"></path><rect x="284.01" y="209.02" width="4.1" height="10.15" transform="translate(572.11 428.19) rotate(180)" style="fill:#ebebeb"></rect><path d="M283.56,209.59h5a.84.84,0,0,0,.85-.84h0a.85.85,0,0,0-.85-.84h-5a.85.85,0,0,0-.84.84h0A.84.84,0,0,0,283.56,209.59Z" style="fill:#ebebeb"></path><path d="M294.27,227.83l-8.21-12.2-8.21,12.2a1.71,1.71,0,0,0,1.42,2.67h13.57A1.72,1.72,0,0,0,294.27,227.83Z" style="fill:#ebebeb"></path><path d="M292.34,227.26l-6.28-8.79-6.28,8.79a1.3,1.3,0,0,0,1.08,2h10.39A1.31,1.31,0,0,0,292.34,227.26Z" style="fill:#7E57C2"></path><g style="opacity:0.2"><path d="M284.93,222.86c-1.18,1.45-1.87,2.46-3.16,3.91-.26.29-.71.55-1,.33a.62.62,0,0,1-.23-.62,1.41,1.41,0,0,1,.28-.64c1.66-2.25,2.58-3.46,4-5.36a1,1,0,0,0,.19-.58l0-4.37c0-.4.45-.92.79-.83a.87.87,0,0,1,.6.77c0,1.28,0,4.1,0,5a.9.9,0,0,1-.17.52Z" style="fill:#fff"></path></g><path d="M280.86,211.08c.91-1,7.19-.79,8.66-.12,1.11.67,4.57,2.82,4.57,2.82L311,215.69l.1,13.16-18.31-8.78c-3.18.79-8.9.09-10.72-.87S279.94,212.05,280.86,211.08Z" style="fill:#7E57C2"></path><path d="M316.68,216.59a8.08,8.08,0,0,1,2.95,1,61,61,0,0,1-5.57-12.46C314.83,208.77,315.9,212.92,316.68,216.59Z" style="opacity:0.2"></path></g><g id="freepik--DNA--inject-101"><path d="M235.64,187.45Z" style="fill:none"></path><path d="M198.69,90.31a16.15,16.15,0,0,1-.6,3.72,11.29,11.29,0,0,0,.65-3.66Z" style="fill:none"></path><path d="M198,84.9c.08.3.15.6.22.9.14.64.27,1.28.37,1.93.06.45.11.89.14,1.34a21.72,21.72,0,0,0-.27-3c-.2-.59-.41-1.18-.61-1.76C197.88,84.51,197.94,84.7,198,84.9Z" style="fill:#7E57C2"></path><path d="M198.71,89.07c0,.42,0,.83,0,1.24l.05.06C198.75,89.93,198.74,89.5,198.71,89.07Z" style="fill:#7E57C2"></path><path d="M156.31,165.93c0-.34.05-.68.09-1l0,0C156.33,165.22,156.32,165.58,156.31,165.93Z" style="fill:#7E57C2"></path><path d="M156.4,164.9a30.75,30.75,0,0,1,1.32-5.83,19.8,19.8,0,0,0-1.36,5.79Z" style="fill:#7E57C2"></path><path d="M213,135.92a29,29,0,0,1,1.4,6.83c-4.66-6.41-12.43-9.86-20-11.48a117.79,117.79,0,0,0-13.76-1.84c-5-.47-10-1-15-1.6s-9.72-1.22-14.54-2c-3.9-.67-7.94-1.64-11.17-4a13.25,13.25,0,0,1-3.86-4.46c-1.74-3.31-2.71-7.14-3.9-10.65-.26-.76-.49-1.5-.7-2.24.12.32.25.64.4.95a5.85,5.85,0,0,0,.28.56,10.21,10.21,0,0,0,.68,1.15,12.57,12.57,0,0,0,1.53,1.88,14,14,0,0,0,1.47,1.31c3.08,2.34,6.94,3.36,10.68,4,9.55,1.74,19.28,2.74,28.94,3.64,8.67.82,17.68,1.52,25.55,5.6a27.05,27.05,0,0,1,9.32,7.63A21.88,21.88,0,0,1,213,135.92Z" style="fill:#7E57C2"></path><path d="M213,135.92a29,29,0,0,1,1.4,6.83c-4.66-6.41-12.43-9.86-20-11.48a117.79,117.79,0,0,0-13.76-1.84c-5-.47-10-1-15-1.6s-9.72-1.22-14.54-2c-3.9-.67-7.94-1.64-11.17-4a13.25,13.25,0,0,1-3.86-4.46c-1.74-3.31-2.71-7.14-3.9-10.65-.26-.76-.49-1.5-.7-2.24.12.32.25.64.4.95a5.85,5.85,0,0,0,.28.56,10.21,10.21,0,0,0,.68,1.15,12.57,12.57,0,0,0,1.53,1.88,14,14,0,0,0,1.47,1.31c3.08,2.34,6.94,3.36,10.68,4,9.55,1.74,19.28,2.74,28.94,3.64,8.67.82,17.68,1.52,25.55,5.6a27.05,27.05,0,0,1,9.32,7.63A21.88,21.88,0,0,1,213,135.92Z" style="opacity:0.30000000000000004"></path><path d="M199.79,103.14l-52.51,17.74-.41.16a2.67,2.67,0,0,1-3.43-1.16h0a2.68,2.68,0,0,1,.7-3.4,2.49,2.49,0,0,1,.3-.19,2.8,2.8,0,0,1,.57-.22l51.51-18.93a3.46,3.46,0,0,1,4.66,1.42h0A3.32,3.32,0,0,1,199.79,103.14Z" style="fill:#263238"></path><path d="M199.79,103.14l-52.51,17.74-.41.16a2.67,2.67,0,0,1-3.43-1.16h0a2.68,2.68,0,0,1,.7-3.4,2.49,2.49,0,0,1,.3-.19,2.8,2.8,0,0,1,.57-.22l51.51-18.93a3.46,3.46,0,0,1,4.66,1.42h0A3.32,3.32,0,0,1,199.79,103.14Z" style="fill:#fff;opacity:0.2"></path><path d="M190.3,117.59l-25.22,7.53a2.9,2.9,0,0,0-.41.16,2.67,2.67,0,0,1-3.43-1.17h0a2.67,2.67,0,0,1,.7-3.39,1.89,1.89,0,0,1,.3-.19,2.32,2.32,0,0,1,.57-.22l24.93-7.42a2.67,2.67,0,0,1,3.63,1.07h0A2.67,2.67,0,0,1,190.3,117.59Z" style="fill:#263238"></path><path d="M190.3,117.59l-25.22,7.53a2.9,2.9,0,0,0-.41.16,2.67,2.67,0,0,1-3.43-1.17h0a2.67,2.67,0,0,1,.7-3.39,1.89,1.89,0,0,1,.3-.19,2.32,2.32,0,0,1,.57-.22l24.93-7.42a2.67,2.67,0,0,1,3.63,1.07h0A2.67,2.67,0,0,1,190.3,117.59Z" style="fill:#fff;opacity:0.4"></path><path d="M192.16,127.28l-24.9,9.57a2.9,2.9,0,0,0-.41.16,2.69,2.69,0,0,1-3.44-1.17h0a2.7,2.7,0,0,1,.71-3.4,2.2,2.2,0,0,1,.3-.19A3.54,3.54,0,0,1,165,132l24.6-9.45a2.68,2.68,0,0,1,3.64,1.07h0A2.68,2.68,0,0,1,192.16,127.28Z" style="fill:#263238"></path><path d="M192.16,127.28l-24.9,9.57a2.9,2.9,0,0,0-.41.16,2.69,2.69,0,0,1-3.44-1.17h0a2.7,2.7,0,0,1,.71-3.4,2.2,2.2,0,0,1,.3-.19A3.54,3.54,0,0,1,165,132l24.6-9.45a2.68,2.68,0,0,1,3.64,1.07h0A2.68,2.68,0,0,1,192.16,127.28Z" style="fill:#fff;opacity:0.30000000000000004"></path><path d="M203.75,132.78l-44.07,18.15a4.19,4.19,0,0,0-.49.2,3.36,3.36,0,0,1-4.32-1.36h0a3.26,3.26,0,0,1,.78-4.21,2.45,2.45,0,0,1,.38-.24,3.78,3.78,0,0,1,.69-.26l44.46-17a2.68,2.68,0,0,1,3.64,1.07h0A2.67,2.67,0,0,1,203.75,132.78Z" style="fill:#263238"></path><path d="M203.75,132.78l-44.07,18.15a4.19,4.19,0,0,0-.49.2,3.36,3.36,0,0,1-4.32-1.36h0a3.26,3.26,0,0,1,.78-4.21,2.45,2.45,0,0,1,.38-.24,3.78,3.78,0,0,1,.69-.26l44.46-17a2.68,2.68,0,0,1,3.64,1.07h0A2.67,2.67,0,0,1,203.75,132.78Z" style="fill:#fff;opacity:0.2"></path><path d="M212.34,141.49,159,164.42a3.59,3.59,0,0,0-.51.2,3.39,3.39,0,0,1-4.33-1.5h0a3.3,3.3,0,0,1,.9-4.23,2.55,2.55,0,0,1,.39-.24,3.43,3.43,0,0,1,.7-.25l53.59-21.65a2.44,2.44,0,0,1,3.15,1.33h0A2.5,2.5,0,0,1,212.34,141.49Z" style="fill:#263238"></path><path d="M212.34,141.49,159,164.42a3.59,3.59,0,0,0-.51.2,3.39,3.39,0,0,1-4.33-1.5h0a3.3,3.3,0,0,1,.9-4.23,2.55,2.55,0,0,1,.39-.24,3.43,3.43,0,0,1,.7-.25l53.59-21.65a2.44,2.44,0,0,1,3.15,1.33h0A2.5,2.5,0,0,1,212.34,141.49Z" style="fill:#fff;opacity:0.1"></path><path d="M198.57,87.73c-.1-.65-.23-1.29-.37-1.93-.07-.3-.14-.6-.22-.9s-.1-.39-.15-.59c.2.58.41,1.17.61,1.76,0-.26-.09-.51-.14-.77-.32-.87-.65-1.73-1-2.57-2.11-4.84-7.06-7.92-12.09-9-6.18-1.32-12.56,0-18.64,1.29,0,0,1.76,5.27,1.91,5.7s1.81,5.72,2,5.67c8.83-1.84,19.07-3.71,26.69,2.49a15.76,15.76,0,0,1,1.52,1.42c0-.41,0-.82,0-1.24S198.63,88.18,198.57,87.73Z" style="fill:#7E57C2"></path><path d="M198.57,87.73c-.1-.65-.23-1.29-.37-1.93-.07-.3-.14-.6-.22-.9s-.1-.39-.15-.59c.2.58.41,1.17.61,1.76,0-.26-.09-.51-.14-.77-.32-.87-.65-1.73-1-2.57-2.11-4.84-7.06-7.92-12.09-9-6.18-1.32-12.56,0-18.64,1.29,0,0,1.76,5.27,1.91,5.7s1.81,5.72,2,5.67c8.83-1.84,19.07-3.71,26.69,2.49a15.76,15.76,0,0,1,1.52,1.42c0-.41,0-.82,0-1.24S198.63,88.18,198.57,87.73Z" style="opacity:0.2"></path><path d="M197.82,91.57l-60.74,19.68a2.68,2.68,0,0,1-3.52-1.38h0a2.69,2.69,0,0,1,1-3.33,2.26,2.26,0,0,1,.66-.28l60.46-19.6A2.69,2.69,0,0,1,199.2,88h0A2.68,2.68,0,0,1,197.82,91.57Z" style="fill:#263238"></path><path d="M197.82,91.57l-60.74,19.68a2.68,2.68,0,0,1-3.52-1.38h0a2.69,2.69,0,0,1,1-3.33,2.26,2.26,0,0,1,.66-.28l60.46-19.6A2.69,2.69,0,0,1,199.2,88h0A2.68,2.68,0,0,1,197.82,91.57Z" style="fill:#fff;opacity:0.30000000000000004"></path><path d="M199.93,90.12c.66,1.9,1.38,3.81,1.88,5.76a27.76,27.76,0,0,1,.8,4.14,12.56,12.56,0,0,1-1.37,7.17c-1.81,3.5-4.63,6.49-7.33,9.31-3.46,3.63-7.11,7-10.89,10.34-6.23,5.42-12.89,10.55-17.86,17.22A45.38,45.38,0,0,0,159,155.47c-.41,1.12-.85,2.33-1.25,3.6a19.8,19.8,0,0,0-1.36,5.79c0,.36,0,.72,0,1.07a15.76,15.76,0,0,0,1.73,7.36,14.47,14.47,0,0,1-1.26-2.59c-1.14-3.11-2.2-6.24-3.24-9.38a20.59,20.59,0,0,1-.89-3.25c-.73-4.55.7-9.33,2.24-13.57a48.91,48.91,0,0,1,11.92-18.17c5.45-5.39,11.58-10,17.18-15.27a115.62,115.62,0,0,0,9.49-9.81,24.18,24.18,0,0,0,4.6-7.22,11.29,11.29,0,0,0,.65-3.66c0-.43,0-.87,0-1.3a21.72,21.72,0,0,0-.27-3c0-.26-.09-.51-.14-.77C198.87,86.9,199.38,88.53,199.93,90.12Z" style="fill:#7E57C2"></path><path d="M237.55,194.3c-.26-.44-.54-.86-.84-1.27,0,.07,0,.14,0,.2.36.47.7,1,1,1.43Z" style="fill:#7E57C2"></path><path d="M236.64,190.05a0,0,0,0,0,0,0c-.05-.14-.1-.28-.15-.4C236.55,189.8,236.59,189.92,236.64,190.05Z" style="fill:none"></path><path d="M235.52,187.07s0,0,0,.08A.27.27,0,0,1,235.52,187.07Z" style="fill:none"></path><path d="M235.23,186.19A50.52,50.52,0,0,1,236.5,192c.06.32.11.64.15,1-.25-.34-.51-.67-.78-1-5.62-6.64-14.74-7.19-22.81-6.61-17.71,1.28-38.76,4.6-52.73-9.22a14.67,14.67,0,0,1-2.28-2.83,15.76,15.76,0,0,1-1.73-7.36c0-.34,0-.68.08-1a34.91,34.91,0,0,0,6.93,5.06A36.24,36.24,0,0,0,176,174.33c9,1.47,18.29,1.06,27.35.18,7.53-.74,15.78-1.8,22.85,1.63a17.87,17.87,0,0,1,7.94,7.68A25.47,25.47,0,0,1,235.23,186.19Z" style="fill:#7E57C2"></path><path d="M235.23,186.19A50.52,50.52,0,0,1,236.5,192c.06.32.11.64.15,1-.25-.34-.51-.67-.78-1-5.62-6.64-14.74-7.19-22.81-6.61-17.71,1.28-38.76,4.6-52.73-9.22a14.67,14.67,0,0,1-2.28-2.83,15.76,15.76,0,0,1-1.73-7.36c0-.34,0-.68.08-1a34.91,34.91,0,0,0,6.93,5.06A36.24,36.24,0,0,0,176,174.33c9,1.47,18.29,1.06,27.35.18,7.53-.74,15.78-1.8,22.85,1.63a17.87,17.87,0,0,1,7.94,7.68A25.47,25.47,0,0,1,235.23,186.19Z" style="opacity:0.2"></path><path d="M238.79,196h0l0-.12Z" style="fill:#7E57C2"></path><path d="M236.74,190.31l-.09-.23a0,0,0,0,1,0,0C236.68,190.14,236.71,190.23,236.74,190.31Z" style="fill:#7E57C2"></path><path d="M237.65,192.85l-.12-.33-.47-1.33c.15.4.3.85.47,1.33Z" style="fill:#7E57C2"></path><polygon points="238.79 195.97 238.8 195.99 238.79 195.98 238.79 195.97" style="fill:#7E57C2"></polygon><path d="M216,155.84l-49.82,20.85a2.6,2.6,0,0,0-.36.13,2.57,2.57,0,0,1-3.18-1.32h0a2.62,2.62,0,0,1,.46-3.27,1.51,1.51,0,0,1,.26-.18,2.34,2.34,0,0,1,.5-.19l49.22-21.37a3.07,3.07,0,0,1,4.15,1.24h0A3,3,0,0,1,216,155.84Z" style="fill:#263238"></path><path d="M216,155.84l-49.82,20.85a2.6,2.6,0,0,0-.36.13,2.57,2.57,0,0,1-3.18-1.32h0a2.62,2.62,0,0,1,.46-3.27,1.51,1.51,0,0,1,.26-.18,2.34,2.34,0,0,1,.5-.19l49.22-21.37a3.07,3.07,0,0,1,4.15,1.24h0A3,3,0,0,1,216,155.84Z" style="fill:#fff;opacity:0.2"></path><path d="M213,171l-32.56,12a2.9,2.9,0,0,0-.41.16,2.69,2.69,0,0,1-3.44-1.17h0a2.68,2.68,0,0,1,.71-3.39,1.57,1.57,0,0,1,.3-.2,3.83,3.83,0,0,1,.56-.22l32.28-11.84a2.67,2.67,0,0,1,3.63,1.07h0A2.67,2.67,0,0,1,213,171Z" style="fill:#263238"></path><path d="M213,171l-32.56,12a2.9,2.9,0,0,0-.41.16,2.69,2.69,0,0,1-3.44-1.17h0a2.68,2.68,0,0,1,.71-3.39,1.57,1.57,0,0,1,.3-.2,3.83,3.83,0,0,1,.56-.22l32.28-11.84a2.67,2.67,0,0,1,3.63,1.07h0A2.67,2.67,0,0,1,213,171Z" style="fill:#fff;opacity:0.4"></path><path d="M218.77,182.08l-28.91,11.41a3.27,3.27,0,0,0-.5.24,3.56,3.56,0,0,1-4.63-1.29h0a3.39,3.39,0,0,1,.66-4.45,2.65,2.65,0,0,1,.39-.26,3.12,3.12,0,0,1,.71-.29l29.41-9.88a2.68,2.68,0,0,1,3.7.83h0A2.67,2.67,0,0,1,218.77,182.08Z" style="fill:#263238"></path><path d="M218.77,182.08l-28.91,11.41a3.27,3.27,0,0,0-.5.24,3.56,3.56,0,0,1-4.63-1.29h0a3.39,3.39,0,0,1,.66-4.45,2.65,2.65,0,0,1,.39-.26,3.12,3.12,0,0,1,.71-.29l29.41-9.88a2.68,2.68,0,0,1,3.7.83h0A2.67,2.67,0,0,1,218.77,182.08Z" style="fill:#fff;opacity:0.30000000000000004"></path><path d="M231.37,187.62,180.48,206a3.27,3.27,0,0,0-.5.24,3.56,3.56,0,0,1-4.63-1.29h0a3.39,3.39,0,0,1,.66-4.45,2.65,2.65,0,0,1,.39-.26,3.69,3.69,0,0,1,.71-.3l51.39-16.8a2.68,2.68,0,0,1,3.7.83h0A2.67,2.67,0,0,1,231.37,187.62Z" style="fill:#263238"></path><path d="M231.37,187.62,180.48,206a3.27,3.27,0,0,0-.5.24,3.56,3.56,0,0,1-4.63-1.29h0a3.39,3.39,0,0,1,.66-4.45,2.65,2.65,0,0,1,.39-.26,3.69,3.69,0,0,1,.71-.3l51.39-16.8a2.68,2.68,0,0,1,3.7.83h0A2.67,2.67,0,0,1,231.37,187.62Z" style="fill:#fff;opacity:0.2"></path><path d="M236.63,200.42,178.1,217.76a4.09,4.09,0,0,0-.42.2,2.93,2.93,0,0,1-3.85-1h0a2.91,2.91,0,0,1,.53-3.76,2.27,2.27,0,0,1,.32-.22,3.24,3.24,0,0,1,.6-.27l58.51-16.74a3,3,0,0,1,4.16.58h0A2.88,2.88,0,0,1,236.63,200.42Z" style="fill:#263238"></path><path d="M236.63,200.42,178.1,217.76a4.09,4.09,0,0,0-.42.2,2.93,2.93,0,0,1-3.85-1h0a2.91,2.91,0,0,1,.53-3.76,2.27,2.27,0,0,1,.32-.22,3.24,3.24,0,0,1,.6-.27l58.51-16.74a3,3,0,0,1,4.16.58h0A2.88,2.88,0,0,1,236.63,200.42Z" style="fill:#fff;opacity:0.1"></path><path d="M172.77,82.07l-25.61,2.8a4.05,4.05,0,0,1-5-2.6h0a3.56,3.56,0,0,1,2.47-4.74L171,77a2.68,2.68,0,0,1,3.41,1.66h0A2.67,2.67,0,0,1,172.77,82.07Z" style="fill:#263238"></path><path d="M172.77,82.07l-25.61,2.8a4.05,4.05,0,0,1-5-2.6h0a3.56,3.56,0,0,1,2.47-4.74L171,77a2.68,2.68,0,0,1,3.41,1.66h0A2.67,2.67,0,0,1,172.77,82.07Z" style="fill:#fff;opacity:0.1"></path><path d="M189.46,84.32,138.18,99a3.35,3.35,0,0,1-4.33-1.94h0a3.27,3.27,0,0,1,1.91-4.28L187.5,79.27c1.11-.43,2.63.89,3.16,2.27l-.19-.54A2.53,2.53,0,0,1,189.46,84.32Z" style="fill:#263238"></path><path d="M189.46,84.32,138.18,99a3.35,3.35,0,0,1-4.33-1.94h0a3.27,3.27,0,0,1,1.91-4.28L187.5,79.27c1.11-.43,2.63.89,3.16,2.27l-.19-.54A2.53,2.53,0,0,1,189.46,84.32Z" style="fill:#fff;opacity:0.4"></path><path d="M132.64,106.35l.22.71a10.21,10.21,0,0,1-.68-1.15,5.85,5.85,0,0,1-.28-.56c-.15-.31-.28-.63-.4-.95-.13-.48-.26-1-.37-1.42-.06-.25-.11-.5-.16-.75a.2.2,0,0,1,0,0C131.07,102,131.56,103,132.64,106.35Z" style="fill:none"></path><path d="M149.94,83.29a11.89,11.89,0,0,1,.54,1.68c-1.65,1.4-3.29,2.81-4.88,4.28-5.65,5.21-10.81,11.65-11.21,19.55v.14a24.9,24.9,0,0,0,2.45,9.57,46.26,46.26,0,0,1-2.52-4.42c-4.23-9.6-4-17.45-3.31-20.46,2.05-8.54,9.15-14.59,15.54-20a16.34,16.34,0,0,0,.62,1.65c.47,1.33.94,2.67,1.4,4S149.49,82,149.94,83.29Z" style="fill:#7E57C2"></path><path d="M131.05,102.41c.09.33.29,1,.55,1.88-.07-.19-.13-.38-.19-.55A12.55,12.55,0,0,1,131.05,102.41Z" style="fill:#7E57C2"></path><path d="M217.37,148.41c2.47,7.88.73,16.42-3.31,23.47-4.41,7.7-11.09,13.75-17.69,19.54-2.86,2.5-5.91,4.78-8.75,7.32a38.26,38.26,0,0,0-7.05,8.43,28.4,28.4,0,0,0-3.77,10.47c-.12.78-.21,1.56-.26,2.34a21.78,21.78,0,0,0,0,3.33c0,.46.11.93.2,1.39,0,.19.07.38.11.57l.14.56.06.41a3.06,3.06,0,0,0,0,.32c-.74-1.8-1.26-3.75-1.85-5.47-1-2.78-2.18-5.62-2.57-8.56a22,22,0,0,1,.09-5.84A28.41,28.41,0,0,1,176.52,196a38.26,38.26,0,0,1,7.32-8.77c2.91-2.6,6-5,9-7.53,6.75-5.94,13.61-12.2,17.89-20.25a33.16,33.16,0,0,0,3.77-12.16,27.73,27.73,0,0,0,.08-4.37l-.13-.18a29,29,0,0,0-1.4-6.83l.05.12C214.7,140.08,216.08,144.26,217.37,148.41Z" style="fill:#7E57C2"></path><path d="M198.07,230.92c.17.49,1.65,5.7,1.91,5.71-2.09-.06-4.18-.06-6.26-.3a28.15,28.15,0,0,1-11.15-3.5,12.78,12.78,0,0,1-3.92-3.43,14,14,0,0,1-1.51-2.84,3.06,3.06,0,0,1,0-.32c0,.06,0-.07-.06-.41l-.14-.56c0-.19-.08-.38-.11-.57-.09-.46-.15-.93-.2-1.39a21.78,21.78,0,0,1,0-3.33l.27.23a21.42,21.42,0,0,0,7.53,3.65,45.66,45.66,0,0,0,11.71,1.39,8.43,8.43,0,0,1,.61,1.65Q197.38,228.91,198.07,230.92Z" style="fill:#7E57C2"></path><path d="M198.07,230.92c.17.49,1.65,5.7,1.91,5.71-2.09-.06-4.18-.06-6.26-.3a28.15,28.15,0,0,1-11.15-3.5,12.78,12.78,0,0,1-3.92-3.43,14,14,0,0,1-1.51-2.84,3.06,3.06,0,0,1,0-.32c0,.06,0-.07-.06-.41l-.14-.56c0-.19-.08-.38-.11-.57-.09-.46-.15-.93-.2-1.39a21.78,21.78,0,0,1,0-3.33l.27.23a21.42,21.42,0,0,0,7.53,3.65,45.66,45.66,0,0,0,11.71,1.39,8.43,8.43,0,0,1,.61,1.65Q197.38,228.91,198.07,230.92Z" style="opacity:0.2"></path><path d="M177,225.83c.08.34.1.47.06.41Z" style="fill:#7E57C2"></path><path d="M131,102.22l0,.18-.06-.22Z" style="fill:#7E57C2"></path><path d="M236.78,216.34l-50.06,14.78a2.42,2.42,0,0,0-.36.18,2.4,2.4,0,0,1-3.2-.83h0a2.51,2.51,0,0,1,.42-3.19,1.64,1.64,0,0,1,.26-.2,2.55,2.55,0,0,1,.5-.24l49.12-15.72c1.76-1.05,4-.73,4.9.74h0C239.29,213.33,238.57,215.35,236.78,216.34Z" style="fill:#263238"></path><path d="M236.78,216.34,186.7,231.06c-.13.05-.24.12-.36.18a2.4,2.4,0,0,1-3.2-.82h0a2.52,2.52,0,0,1,.42-3.2l.26-.2a3.27,3.27,0,0,1,.5-.24l49.14-15.66c1.76-1.05,4-.73,4.9.74h0C239.29,213.33,238.57,215.35,236.78,216.34Z" style="fill:#fff;opacity:0.4"></path><path d="M238.8,196h0l0-.12c-.05-.14-.1-.29-.16-.44s-.12-.32-.18-.5c-.12-.34-.27-.73-.42-1.15,0-.09-.07-.19-.11-.29l-.23-.63-.12-.33-.47-1.33c-.12-.32-.22-.61-.32-.88l-.09-.23c-.05-.14-.1-.28-.15-.4.05.12.09.24.14.37-.43-1.29-.88-2.6-1.41-3.86A50.52,50.52,0,0,1,236.5,192c.06.32.11.64.15,1l.06.08,0,.2c0,.32,0,.63.05,1a30,30,0,0,1-2.36,12.64,45.66,45.66,0,0,1-3.29,6.32,8.61,8.61,0,0,0,.53,1.68c.45,1.34.91,2.69,1.37,4s.93,2.68,1.41,4a8.83,8.83,0,0,1,.62,1.66c4.3-7,6.8-15,5.15-23.22a35.65,35.65,0,0,0-1-3.81C239.26,197.49,239.15,197,238.8,196Zm-3.25-8.84a.27.27,0,0,1,0-.08S235.53,187.11,235.55,187.15Z" style="fill:#7E57C2"></path></g></svg>