<svg xmlns="http://www.w3.org/2000/svg" viewBox="0 0 500 500"><g id="freepik--background-complete--inject-10"><rect y="382.4" width="500" height="0.25" style="fill:#ebebeb"></rect><rect x="416.78" y="398.49" width="33.12" height="0.25" style="fill:#ebebeb"></rect><rect x="322.53" y="401.21" width="8.69" height="0.25" style="fill:#ebebeb"></rect><rect x="396.59" y="389.21" width="19.19" height="0.25" style="fill:#ebebeb"></rect><rect x="52.46" y="390.89" width="43.19" height="0.25" style="fill:#ebebeb"></rect><rect x="104.56" y="390.89" width="6.33" height="0.25" style="fill:#ebebeb"></rect><rect x="131.47" y="395.11" width="93.68" height="0.25" style="fill:#ebebeb"></rect><path d="M237,337.8H43.91a5.71,5.71,0,0,1-5.7-5.71V60.66A5.71,5.71,0,0,1,43.91,55H237a5.71,5.71,0,0,1,5.71,5.71V332.09A5.71,5.71,0,0,1,237,337.8ZM43.91,55.2a5.46,5.46,0,0,0-5.45,5.46V332.09a5.46,5.46,0,0,0,5.45,5.46H237a5.47,5.47,0,0,0,5.46-5.46V60.66A5.47,5.47,0,0,0,237,55.2Z" style="fill:#ebebeb"></path><path d="M453.31,337.8H260.21a5.72,5.72,0,0,1-5.71-5.71V60.66A5.72,5.72,0,0,1,260.21,55h193.1A5.71,5.71,0,0,1,459,60.66V332.09A5.71,5.71,0,0,1,453.31,337.8ZM260.21,55.2a5.47,5.47,0,0,0-5.46,5.46V332.09a5.47,5.47,0,0,0,5.46,5.46h193.1a5.47,5.47,0,0,0,5.46-5.46V60.66a5.47,5.47,0,0,0-5.46-5.46Z" style="fill:#ebebeb"></path><rect x="82.33" y="106.61" width="150.75" height="133.77" style="fill:#e6e6e6"></rect><rect x="86.1" y="110.28" width="143.01" height="126.51" style="fill:#f0f0f0"></rect><polygon points="119.67 110.28 86.11 236.51 86.11 177.19 103.83 110.28 119.67 110.28" style="fill:#fff"></polygon><polygon points="131.55 110.28 97.7 236.79 92.29 236.79 126.15 110.28 131.55 110.28" style="fill:#fff"></polygon><polygon points="229.11 190.11 229.11 210.32 222.26 236.79 216.86 236.79 229.11 190.11" style="fill:#fff"></polygon><rect x="133.57" y="108" width="2.41" height="131.61" style="fill:#e6e6e6"></rect><rect x="180.26" y="108" width="2.41" height="131.61" style="fill:#e6e6e6"></rect><rect x="274.76" y="147.91" width="143.99" height="42.82" style="fill:#e6e6e6"></rect><rect x="274.76" y="147.91" width="118.62" height="42.82" style="fill:#f0f0f0"></rect><path d="M389.16,186.69H354.4V151.94h34.76Zm-33.76-1h32.76V152.94H355.4Z" style="fill:#ebebeb"></path><path d="M309.59,186.69H279.27V151.94h30.32Zm-29.32-1h28.32V152.94H280.27Z" style="fill:#ebebeb"></path><rect x="313.06" y="165.06" width="6.92" height="8.51" style="fill:#fafafa"></rect><rect x="322.75" y="165.06" width="6.92" height="8.51" style="fill:#fafafa"></rect><rect x="332.44" y="165.06" width="6.92" height="8.51" style="fill:#fafafa"></rect><rect x="342.14" y="165.06" width="6.92" height="8.51" style="fill:#fafafa"></rect><rect x="392.17" y="128.37" width="3.56" height="17.6" style="fill:#e0e0e0"></rect><polygon points="403.33 145.18 384.56 145.18 383.56 147.91 404.33 147.91 403.33 145.18" style="fill:#e0e0e0"></polygon><rect x="378.82" y="106.61" width="30.26" height="26.31" style="fill:#f5f5f5"></rect><rect x="294.11" y="128.37" width="3.56" height="17.6" style="fill:#e0e0e0"></rect><polygon points="305.27 145.18 286.5 145.18 285.5 147.91 306.27 147.91 305.27 145.18" style="fill:#e0e0e0"></polygon><rect x="280.76" y="106.61" width="30.26" height="26.31" style="fill:#f5f5f5"></rect></g><g id="freepik--Shadow--inject-10"><ellipse id="freepik--path--inject-10" cx="250" cy="416.24" rx="193.89" ry="11.32" style="fill:#f5f5f5"></ellipse></g><g id="freepik--Character--inject-10"><path d="M137.66,174.3s-5.43.65-5.09,4.72c0,0-6.12.39-5.1,4.38,0,0-4.77,1.74-3.23,8.53s32.43,7.58,36.28,4.75,1.15-7.06,1.15-7.06,1.71-1.5-1-4.61a6.19,6.19,0,0,0-2.54-7.23C154,175.12,142.07,173.54,137.66,174.3Z" style="fill:#263238"></path><path d="M178.53,415.32c-6.47,0-7.33-.1-11-.22-3.11-.11-3.86.28-6.36.22-2.1,0-2-2.05-1.37-4.35.32-1.16.82-3.6,1.26-5.47l9.49-.69c1.34,2.55,4.35,6.18,8,6.67C182.06,412,181.12,415.32,178.53,415.32Z" style="fill:#263238"></path><path d="M146.57,240.66s8.38,50.51,9.76,76.57c1.45,27.36,10.23,71.19,14.86,88.31-1.3,1.18-7.44,1.67-10.34.22,0,0-25.31-50.55-22-82.15-21.17-59.6-16.05-81.9-16.05-81.9Z" style="fill:#7E57C2"></path><g style="isolation:isolate;opacity:0.5"><path d="M146.57,240.66s8.38,50.51,9.76,76.57c1.45,27.36,10.23,71.19,14.86,88.31-1.3,1.18-7.44,1.67-10.34.22,0,0-25.31-50.55-22-82.15-21.17-59.6-16.05-81.9-16.05-81.9Z" style="fill:#fff"></path></g><path d="M130.62,415.32c-6.47,0-7.33-.1-11-.22-3.11-.11-3.86.28-6.36.22-2.1,0-2-2.05-1.37-4.35.32-1.16.82-3.6,1.26-5.47l9.49-.69c1.34,2.55,4.35,6.18,8,6.67C134.15,412,133.21,415.32,130.62,415.32Z" style="fill:#263238"></path><path d="M132.56,304.65c-3-9.93-5.18-18.53-6.71-25.9,1.52-5.77,3.68-10.71,6.62-13.67C132.47,265.08,136.69,281.14,132.56,304.65Z" style="opacity:0.2"></path><path d="M137.5,238s-6.93,53.59-10.89,79.38c-4.17,27.09-4.7,70.55-3.66,88.26-1.52.88-7,1.94-10,1,0,0-14.12-54.78-4.74-86.59-8.54-62.67,3.82-78,3.82-78Z" style="fill:#7E57C2"></path><g style="isolation:isolate;opacity:0.5"><path d="M137.5,238s-6.93,53.59-10.89,79.38c-4.17,27.09-4.7,70.55-3.66,88.26-1.52.88-7,1.94-10,1,0,0-14.12-54.78-4.74-86.59-8.54-62.67,3.82-78,3.82-78Z" style="fill:#fff"></path></g><path d="M207.8,222l-2.13-1.43a3,3,0,0,0-2.71-.32l-4.22,1.59a5.54,5.54,0,0,0-3.42,3.78l-.28,1.08c3.36,2.62,8.93,3,8.93,3l1.57.27a2.47,2.47,0,0,0,2.93-2l.59-3.11A2.86,2.86,0,0,0,207.8,222Z" style="fill:#b55b52"></path><path d="M166.33,198.41c2.68,4.55,5.51,9.91,8.94,13.7a18,18,0,0,0,4.1,2.54c3.39,1.69,7,3.23,10.7,4.77L201.15,224a2.32,2.32,0,0,1-1.31,4.42c-4-.75-8-1.65-11.91-2.7-5.8-1.67-12-3.23-17.31-6.52a27.61,27.61,0,0,1-5.72-5.71,68.49,68.49,0,0,1-6.8-10.73c-2.65-5.5,5.16-9.64,8.23-4.36Z" style="fill:#b65b52"></path><path d="M155.1,188.29c7.73-.23,12,4.93,17,17.2-2.27,4.57-12.87,8.92-12.87,8.92S150,196.45,155.1,188.29Z" style="fill:#7E57C2"></path><path d="M153.9,198.63a61.67,61.67,0,0,0,5.28,15.79s1.12-.46,2.7-1.24c3.3-1.6,8.64-4.6,10.17-7.69-5-12.27-9.22-17.42-17-17.19C153.42,191,153.31,194.78,153.9,198.63Z" style="fill:#fff;opacity:0.6000000000000001"></path><path d="M153.9,198.63a61.67,61.67,0,0,0,5.28,15.79s1.12-.46,2.7-1.24A14.08,14.08,0,0,0,153.9,198.63Z" style="isolation:isolate;opacity:0.1"></path><path d="M150.68,249.1l-12.87,4.35-2.39-7.82-2.61,7.21-23.37-5.43c2-14.35,10-25.79,11.26-30.14,1.74-6,3.09-17.48,1.91-24.9v-.05a5.52,5.52,0,0,1,5-6.35q3.39-.27,6.81-.27a96.35,96.35,0,0,1,13.47.79c5.74.9,12.23,2.65,12.23,2.65s.89.38.48,6.55c-.38,5.39-1.41,22.15-12.44,36.33Z" style="fill:#7E57C2"></path><path d="M109.44,247.4l23.37,5.44,2.61-7.21,2.38,7.82,12.89-4.35L148.14,232c11-14.19,12.06-30.94,12.44-36.35.41-6.16-.49-6.54-.49-6.54s-6.48-1.74-12.22-2.65a94.93,94.93,0,0,0-13.47-.79q-3.42,0-6.81.27a5.52,5.52,0,0,0-5,6.35.09.09,0,0,0,0,.05,50.84,50.84,0,0,1,.32,10.48,71.49,71.49,0,0,1-2.23,14.42,24.53,24.53,0,0,1-1.43,3.39C116.51,226.25,111.05,235.89,109.44,247.4Z" style="fill:#fff;isolation:isolate;opacity:0.6000000000000001"></path><path d="M137.57,197.14s5.15,4.46,6.65,15.93l5.8-16,4,1.21s-3.07-14.53-13.08-14.81-9.22,14.81-9.22,14.81Z" style="fill:#7E57C2"></path><path d="M137.57,197.14s5.15,4.46,6.65,15.93l5.8-16,4,1.21s-3.07-14.53-13.08-14.81-9.22,14.81-9.22,14.81Z" style="fill:#fff;isolation:isolate;opacity:0.5"></path><path d="M152,180.79s-3.66,2.36-4.29,3.92a2.82,2.82,0,0,0-.09.3,21.86,21.86,0,0,0-.37,2.69c2.84,6-2.56,16.35-2.56,16.35A64.43,64.43,0,0,0,135.57,187c5.86-2.29,7-13.52,7-13.52l2.84,2.19Z" style="fill:#b55b52"></path><path d="M152,180.79s-3.66,2.36-4.29,3.92a2.82,2.82,0,0,0-.09.3A11.91,11.91,0,0,1,143,174.86l2.37.81Z" style="isolation:isolate;opacity:0.2"></path><path d="M154,154.53s1.49-1.29,5-.39,3,3.27,3,3.27,4.34,1.85,4.91,5.68-1.81,5.08-1.81,5.08a5.49,5.49,0,0,1,.57,5.31,6.52,6.52,0,0,1-3.67,3.8s.84,2.55-4.26,2.66-12.33-5.64-12.33-5.64l-3,1s-3.48,1.09-5.52-1,0-5.15,0-5.15a3.63,3.63,0,0,1-1.92-2.27c-.46-1.66,1.26-3.79,1.26-3.79s2.09-8.93,7.48-10.59S154,154.53,154,154.53Z" style="fill:#263238"></path><path d="M153.29,155.83c7.65,1,9.55,5.48,9,13.43-.64,10-3.78,16.65-13.05,13.24C136.68,177.88,140.59,154.1,153.29,155.83Z" style="fill:#b55b52"></path><path d="M157.45,168.16a16.17,16.17,0,0,0,1.79,3.48,2.13,2.13,0,0,1-2.14.59Z" style="fill:#a02724"></path><path d="M152.85,166.9c-.07.63-.47,1.1-.89,1s-.7-.59-.63-1.22.47-1.1.89-1.06S152.92,166.27,152.85,166.9Z" style="fill:#263238"></path><path d="M152,165.68l1.43-.38S152.66,166.38,152,165.68Z" style="fill:#263238"></path><path d="M160.7,167.65c-.07.63-.47,1.1-.89,1s-.7-.59-.63-1.22.47-1.1.89-1.06S160.77,167,160.7,167.65Z" style="fill:#263238"></path><path d="M159.89,166.43l1.43-.38S160.51,167.13,159.89,166.43Z" style="fill:#263238"></path><path d="M150,162.64a.31.31,0,0,1-.24-.1.33.33,0,0,1,0-.47,4.29,4.29,0,0,1,3.79-.78.33.33,0,0,1-.17.64,3.7,3.7,0,0,0-3.17.62A.31.31,0,0,1,150,162.64Z" style="fill:#263238"></path><path d="M162.06,163.42a.31.31,0,0,1-.22-.09,3.29,3.29,0,0,0-2.67-1,.33.33,0,0,1-.4-.25.34.34,0,0,1,.25-.39,3.92,3.92,0,0,1,3.26,1.12.33.33,0,0,1-.22.58Z" style="fill:#263238"></path><path d="M143.18,167.59s4.43-5.8,4.55-10.73c0,0,16-4.12,14.65,11.36,0,0,3.34-13.46-9.76-15.55s-16.13,16-10.12,22.61A7.65,7.65,0,0,1,143.18,167.59Z" style="fill:#263238"></path><path d="M144.21,169.37a3.39,3.39,0,0,0-3.2-3.56c-2.4-.06-4.19,4.65,1.54,6.62C143.37,172.72,144,172,144.21,169.37Z" style="fill:#b55b52"></path><path d="M157,175.92h0a6.3,6.3,0,0,1-4.76-3,.33.33,0,0,1,.11-.45.35.35,0,0,1,.46.11,5.75,5.75,0,0,0,4.21,2.68.33.33,0,1,1,0,.65Z" style="fill:#263238"></path><path d="M136.32,163.09l.56-11.91-2.1-3.29a31.11,31.11,0,0,1,17-1.23l7.28,7.48S145,150.64,136.32,163.09Z" style="fill:#7E57C2"></path><path d="M159,154.14a23.12,23.12,0,0,0-15.56,2.33,21.62,21.62,0,0,0-7.15,6.62l.56-11.91-2.1-3.28a31,31,0,0,1,17-1.23Z" style="fill:#fff;isolation:isolate;opacity:0.6000000000000001"></path><path d="M143.47,156.47a21.62,21.62,0,0,0-7.15,6.62l.56-11.91-2.1-3.28Z" style="isolation:isolate;opacity:0.1"></path><polygon points="158.64 215.84 148.41 215.15 149.14 209.44 159.37 210.14 158.64 215.84" style="fill:#7E57C2"></polygon><polygon points="158.09 215.4 149.29 214.8 149.92 209.89 158.72 210.49 158.09 215.4" style="fill:#fff;isolation:isolate;opacity:0.5"></polygon><polygon points="154.56 207.89 153.57 210.65 155.22 210.65 155.22 207.89 154.56 207.89" style="fill:#263238"></polygon><path d="M119.27,220.66c10.89-1.06,9.91-15.63,9.91-15.63a39.65,39.65,0,0,0-6.25-2.18,71.49,71.49,0,0,1-2.23,14.42A24.53,24.53,0,0,1,119.27,220.66Z" style="isolation:isolate;opacity:0.1"></path><path d="M225.36,268.06c-.68,1.89-4.84,0-4.84,0s-51,12.21-74.42,13.38c0,0-3.94,3.23-4.7,2.34a1.15,1.15,0,0,1-.18-.4c-.4-1.48.37-5.65.37-5.65s-8-35.46-9-48c0,0-1.85-2.83-.73-3.93s4.36-.18,4.36-.18,8.46-3.45,32.14-7.89a342.07,342.07,0,0,1,40.57-5.35s3.6-2.59,4.93-2.54.61,3.25.61,3.25,5.39,27.92,8.68,48.6C223.14,261.74,226,266.17,225.36,268.06Z" style="fill:#7E57C2"></path><path d="M221,259s2.4,5.89,2.42,7.06-5.2-.78-5.2-.78a57.11,57.11,0,0,0-1-13.31s1.65,8.79-1.85,12.82c0,0,.79-4.4-.18-6.42,0,0-7.67,9.8-32.3,14.42s-34.79-3.45-34.79-3.45a8.27,8.27,0,0,0,3.38,6.52,14.34,14.34,0,0,1-6.23-9.95,24,24,0,0,0,2,10.92s-3.11,5.15-6,6.57c-.4-1.48.37-5.65.37-5.65s-8-35.46-9-48c0,0-1.85-2.83-.73-3.93s4.36-.18,4.36-.18,8.46-3.45,32.14-7.89a342.07,342.07,0,0,1,40.57-5.35s3.6-2.59,4.93-2.54c.49,1-.44,4.72-.44,4.72S220.65,256.26,221,259Z" style="fill:#fff;isolation:isolate;opacity:0.2"></path><path d="M158.43,231.41l-2.09-1.86a3.25,3.25,0,0,0-2.88-.75l-4.8,1.09a6.06,6.06,0,0,0-4.25,3.59l-.47,1.12c3.25,3.32,9.21,4.52,9.21,4.52l1.66.53a2.71,2.71,0,0,0,3.46-1.69l1.1-3.28A3.13,3.13,0,0,0,158.43,231.41Z" style="fill:#b55b52"></path><path d="M126.15,203A108.26,108.26,0,0,0,123,224.12a60.86,60.86,0,0,0,.17,6.91l-.21-.86c-.11-.26-.3-.37-.22-.28a8.23,8.23,0,0,0,3.55,1.22,76.73,76.73,0,0,0,15,.39c2.61-.11,5.26-.32,7.84-.52a2.32,2.32,0,0,1,.83,4.54,95.39,95.39,0,0,1-16.06,3.14c-4.4.38-8.91.7-13.43-.76-2.41-.8-5.12-2.76-5.66-5.71-1.65-10.63-.37-21.37,2.39-31.69,1.86-5.84,10.42-3.43,9,2.53Z" style="fill:#b65b52"></path><path d="M127.75,186.33c-7.69.82-11.21,6.51-14.47,19.34,2.87,4.22,14,7.1,14,7.1S133.87,193.73,127.75,186.33Z" style="fill:#7E57C2"></path><path d="M127.75,186.33c-7.69.82-11.21,6.51-14.47,19.34,2.87,4.22,14,7.1,14,7.1S133.87,193.73,127.75,186.33Z" style="fill:#fff;opacity:0.6000000000000001"></path></g><g id="freepik--Bed--inject-10"><path d="M394.76,305.94V232.69c0-2.91-1.65-5.26-3.69-5.26H272.45c-2,0-3.7,2.35-3.7,5.26v73.25c0,2.91,1.66,5.26,3.7,5.26H391.07C393.11,311.2,394.76,308.85,394.76,305.94ZM293.87,299.6c0,2.67-1.51,4.84-3.39,4.84h-12a3,3,0,0,1-2.4-1.42,6,6,0,0,1-1-3.42c0-2.69,1.52-4.85,3.4-4.85h12a3,3,0,0,1,2.4,1.42A6,6,0,0,1,293.87,299.6Zm94.59,0c0,2.67-1.52,4.84-3.39,4.84H373a3,3,0,0,1-2.4-1.42,6,6,0,0,1-1-3.42c0-2.69,1.52-4.85,3.4-4.85h12a3,3,0,0,1,2.4,1.42A6,6,0,0,1,388.46,299.6Z" style="fill:#7E57C2"></path><path d="M394.76,305.94V232.69c0-2.91-1.65-5.26-3.69-5.26H272.45c-2,0-3.7,2.35-3.7,5.26v73.25c0,2.91,1.66,5.26,3.7,5.26H391.07C393.11,311.2,394.76,308.85,394.76,305.94ZM293.87,299.6c0,2.67-1.51,4.84-3.39,4.84h-12a3,3,0,0,1-2.4-1.42,6,6,0,0,1-1-3.42c0-2.69,1.52-4.85,3.4-4.85h12a3,3,0,0,1,2.4,1.42A6,6,0,0,1,293.87,299.6Zm94.59,0c0,2.67-1.52,4.84-3.39,4.84H373a3,3,0,0,1-2.4-1.42,6,6,0,0,1-1-3.42c0-2.69,1.52-4.85,3.4-4.85h12a3,3,0,0,1,2.4,1.42A6,6,0,0,1,388.46,299.6Z" style="fill:#fff;opacity:0.6000000000000001"></path><path d="M392.78,305.94V232.69c0-2.91-1.65-5.26-3.69-5.26H270.47c-2,0-3.7,2.35-3.7,5.26v73.25c0,2.91,1.66,5.26,3.7,5.26H389.09C391.13,311.2,392.78,308.85,392.78,305.94ZM291.89,299.6c0,2.67-1.51,4.84-3.39,4.84h-12a3,3,0,0,1-2.4-1.42,6,6,0,0,1-1-3.42c0-2.69,1.52-4.85,3.4-4.85h12a3,3,0,0,1,2.4,1.42A6,6,0,0,1,291.89,299.6Zm94.59,0c0,2.67-1.52,4.84-3.39,4.84h-12a3,3,0,0,1-2.41-1.42,6,6,0,0,1-1-3.42c0-2.69,1.52-4.85,3.4-4.85h12a3,3,0,0,1,2.4,1.42A6,6,0,0,1,386.48,299.6Z" style="fill:#7E57C2"></path><path d="M392.78,305.94V232.69c0-2.91-1.65-5.26-3.69-5.26H270.47c-2,0-3.7,2.35-3.7,5.26v73.25c0,2.91,1.66,5.26,3.7,5.26H389.09C391.13,311.2,392.78,308.85,392.78,305.94ZM291.89,299.6c0,2.67-1.51,4.84-3.39,4.84h-12a3,3,0,0,1-2.4-1.42,6,6,0,0,1-1-3.42c0-2.69,1.52-4.85,3.4-4.85h12a3,3,0,0,1,2.4,1.42A6,6,0,0,1,291.89,299.6Zm94.59,0c0,2.67-1.52,4.84-3.39,4.84h-12a3,3,0,0,1-2.41-1.42,6,6,0,0,1-1-3.42c0-2.69,1.52-4.85,3.4-4.85h12a3,3,0,0,1,2.4,1.42A6,6,0,0,1,386.48,299.6Z" style="fill:#fff;opacity:0.7000000000000001"></path><rect x="273.07" y="244.92" width="113.41" height="32.99" rx="2.95" style="opacity:0.1"></rect><rect x="266.77" y="237.47" width="126.01" height="1.58" style="fill:#7E57C2"></rect><polygon points="246.71 403.22 251.03 407.54 253.82 407.54 255.05 400.6 246.71 403.22" style="fill:#7E57C2"></polygon><path d="M258.5,398.15h-3.27c-3.8,0-6.88,3.84-6.88,8.59s3.08,8.59,6.88,8.59h3.27c3.79,0,6.87-3.85,6.87-8.59S262.29,398.15,258.5,398.15Z" style="fill:#263238"></path><ellipse cx="258.5" cy="406.74" rx="6.88" ry="8.59" style="fill:#fff;opacity:0.30000000000000004"></ellipse><ellipse cx="258.5" cy="406.74" rx="4.42" ry="6.14" style="fill:#fff;opacity:0.30000000000000004"></ellipse><path d="M259.76,405.93V399a5,5,0,0,0-1.48-3.56l-4-4h-7.55v11.8h6.52l3.83,3.83a1.6,1.6,0,0,0,1.2.46h0A1.59,1.59,0,0,0,259.76,405.93Z" style="fill:#7E57C2"></path><path d="M259.76,399v6.93a1.57,1.57,0,0,1-1.5,1.57,1.54,1.54,0,0,1-1.2-.46l-3.83-3.82h-6.52v-11.8h7.55l4,4A5,5,0,0,1,259.76,399Z" style="fill:#fff;opacity:0.30000000000000004"></path><path d="M259.76,399v6.93a1.57,1.57,0,0,1-1.5,1.57,1.54,1.54,0,0,1-1.2-.46l-3.83-3.82v-11.8h1l4,4A5,5,0,0,1,259.76,399Z" style="fill:#fff;opacity:0.2"></path><rect x="245.52" y="379.05" width="16.6" height="13.22" rx="1.13" style="fill:#7E57C2"></rect><path d="M262.12,380.18v11a1.12,1.12,0,0,1-1.13,1.13H246.66a1.12,1.12,0,0,1-1.13-1.13v-11a1.13,1.13,0,0,1,1.13-1.13H261A1.13,1.13,0,0,1,262.12,380.18Z" style="fill:#fff;opacity:0.2"></path><path d="M262.12,380.18v11a1.12,1.12,0,0,1-1.13,1.13h-7.75a1.13,1.13,0,0,1-1.13-1.13v-11a1.14,1.14,0,0,1,1.13-1.13H261A1.13,1.13,0,0,1,262.12,380.18Z" style="fill:#fff;opacity:0.2"></path><path d="M93.72,380.17H250.27a.61.61,0,0,1,.61.61v9.38a.61.61,0,0,1-.61.61H93.72a0,0,0,0,1,0,0V380.17A0,0,0,0,1,93.72,380.17Z" style="fill:#7E57C2"></path><path d="M93.72,380.17H250.27a.61.61,0,0,1,.61.61v9.38a.61.61,0,0,1-.61.61H93.72a0,0,0,0,1,0,0V380.17A0,0,0,0,1,93.72,380.17Z" style="fill:#fff;opacity:0.30000000000000004"></path><polygon points="86.61 403.22 90.93 407.54 93.72 407.54 94.95 400.6 86.61 403.22" style="fill:#7E57C2"></polygon><path d="M98.4,398.15H95.12c-3.79,0-6.87,3.84-6.87,8.59s3.08,8.59,6.87,8.59H98.4c3.79,0,6.87-3.85,6.87-8.59S102.19,398.15,98.4,398.15Z" style="fill:#263238"></path><ellipse cx="98.4" cy="406.74" rx="6.88" ry="8.59" style="fill:#fff;opacity:0.30000000000000004"></ellipse><ellipse cx="98.4" cy="406.74" rx="4.42" ry="6.14" style="fill:#fff;opacity:0.30000000000000004"></ellipse><path d="M99.66,405.93V399a5,5,0,0,0-1.48-3.56l-4-4H86.61v11.8h6.52L97,407.05a1.6,1.6,0,0,0,1.2.46h0A1.59,1.59,0,0,0,99.66,405.93Z" style="fill:#7E57C2"></path><path d="M99.66,399v6.93a1.57,1.57,0,0,1-1.5,1.57A1.54,1.54,0,0,1,97,407l-3.83-3.82H86.61v-11.8h7.55l4,4A5,5,0,0,1,99.66,399Z" style="fill:#fff;opacity:0.30000000000000004"></path><path d="M99.66,399v6.93a1.57,1.57,0,0,1-1.5,1.57A1.54,1.54,0,0,1,97,407l-3.83-3.82v-11.8h1l4,4A5,5,0,0,1,99.66,399Z" style="fill:#fff;opacity:0.2"></path><rect x="85.42" y="379.05" width="16.6" height="13.22" rx="1.13" style="fill:#7E57C2"></rect><path d="M102,380.18v11a1.12,1.12,0,0,1-1.13,1.13H86.56a1.12,1.12,0,0,1-1.13-1.13v-11a1.13,1.13,0,0,1,1.13-1.13h14.33A1.13,1.13,0,0,1,102,380.18Z" style="fill:#fff;opacity:0.2"></path><path d="M102,380.18v11a1.12,1.12,0,0,1-1.13,1.13H93.14A1.13,1.13,0,0,1,92,391.14v-11a1.14,1.14,0,0,1,1.13-1.13h7.75A1.13,1.13,0,0,1,102,380.18Z" style="fill:#fff;opacity:0.2"></path><path d="M367.66,368.67a2.81,2.81,0,0,1-1.07-.22l-61.35-26.68L243.9,368.45a2.69,2.69,0,0,1-3.76-2.47V311.74a2.43,2.43,0,0,1,.05-.6,2.72,2.72,0,0,1,.36-.88,2.61,2.61,0,0,1,.8-.82,2.73,2.73,0,0,1,1.09-.42,3.39,3.39,0,0,1,.45,0H367.6a3.39,3.39,0,0,1,.45,0,2.63,2.63,0,0,1,1.07.41,2.54,2.54,0,0,1,.82.84,2.38,2.38,0,0,1,.35.87,2.45,2.45,0,0,1,.06.6V366a2.7,2.7,0,0,1-2.69,2.69ZM312,338.83l53,23.05V315.79Zm-66.47-23v46.09l53-23.05Zm10.24-1.41,49.48,21.52,49.49-21.52Z" style="fill:#263238"></path><g style="opacity:0.30000000000000004"><path d="M367.66,368.67a2.81,2.81,0,0,1-1.07-.22l-61.35-26.68L243.9,368.45a2.69,2.69,0,0,1-3.76-2.47V311.74a2.43,2.43,0,0,1,.05-.6,2.72,2.72,0,0,1,.36-.88,2.61,2.61,0,0,1,.8-.82,2.73,2.73,0,0,1,1.09-.42,3.39,3.39,0,0,1,.45,0H367.6a3.39,3.39,0,0,1,.45,0,2.63,2.63,0,0,1,1.07.41,2.54,2.54,0,0,1,.82.84,2.38,2.38,0,0,1,.35.87,2.45,2.45,0,0,1,.06.6V366a2.7,2.7,0,0,1-2.69,2.69ZM312,338.83l53,23.05V315.79Zm-66.47-23v46.09l53-23.05Zm10.24-1.41,49.48,21.52,49.49-21.52Z" style="fill:#fff"></path></g><path d="M216.12,381.1a2.69,2.69,0,0,1-1.3-5.05l65.42-36a2.71,2.71,0,0,1,1.3-.34h55.12l43.84-59.5a2.69,2.69,0,0,1,4.33,3.19L340.18,344a2.69,2.69,0,0,1-2.17,1.09H282.23l-64.82,35.69A2.62,2.62,0,0,1,216.12,381.1Z" style="fill:#263238"></path><g style="opacity:0.6000000000000001"><path d="M216.12,381.1a2.69,2.69,0,0,1-1.3-5.05l65.42-36a2.71,2.71,0,0,1,1.3-.34h55.12l43.84-59.5a2.69,2.69,0,0,1,4.33,3.19L340.18,344a2.69,2.69,0,0,1-2.17,1.09H282.23l-64.82,35.69A2.62,2.62,0,0,1,216.12,381.1Z" style="fill:#fff"></path></g><path d="M216.15,388.49a2.82,2.82,0,0,1-2.82-2.76l-.48-19.68a2.82,2.82,0,0,1,2.82-2.89h152a2.81,2.81,0,0,1,2.42,1.37L381,382.81a2.82,2.82,0,1,1-4.85,2.89l-10.07-16.9H218.56l.42,16.79a2.83,2.83,0,0,1-2.76,2.89Z" style="fill:#263238"></path><g style="opacity:0.5"><path d="M216.15,388.49a2.82,2.82,0,0,1-2.82-2.76l-.48-19.68a2.82,2.82,0,0,1,2.82-2.89h152a2.81,2.81,0,0,1,2.42,1.37L381,382.81a2.82,2.82,0,1,1-4.85,2.89l-10.07-16.9H218.56l.42,16.79a2.83,2.83,0,0,1-2.76,2.89Z" style="fill:#fff"></path></g><path d="M385.32,248.17a3.75,3.75,0,0,0-3.61-2.67H272.51a3.8,3.8,0,0,0-3,1.48l-54.44,71.64a3.76,3.76,0,0,1-3,1.49H160.19a3.79,3.79,0,0,0-1.83.48L103.81,351a3.67,3.67,0,0,0-1.92,3.72c.22,1.75,1.64,15.79,1.94,17.27a3.69,3.69,0,0,0,3.69,3H210.68a3.79,3.79,0,0,0,1.84-.47l66.39-36.95a3.79,3.79,0,0,1,1.83-.48h51.88a3.8,3.8,0,0,0,3-1.48l51-67.08a3.74,3.74,0,0,0,.76-2.67C387.32,265.62,385.65,249.26,385.32,248.17Z" style="fill:#7E57C2"></path><path d="M385.32,248.17a3.75,3.75,0,0,0-3.61-2.67H272.51a3.8,3.8,0,0,0-3,1.48l-54.44,71.64a3.76,3.76,0,0,1-3,1.49H160.19a3.79,3.79,0,0,0-1.83.48L103.81,351a3.67,3.67,0,0,0-1.92,3.72c.22,1.75,1.64,15.79,1.94,17.27a3.69,3.69,0,0,0,3.69,3H210.68a3.79,3.79,0,0,0,1.84-.47l66.39-36.95a3.79,3.79,0,0,1,1.83-.48h51.88a3.8,3.8,0,0,0,3-1.48l51-67.08a3.74,3.74,0,0,0,.76-2.67C387.32,265.62,385.65,249.26,385.32,248.17Z" style="fill:#fff;opacity:0.5"></path><g style="opacity:0.7000000000000001"><path d="M209.72,371.85a4.71,4.71,0,0,1-2.3-8.82l61.66-34.31a4.7,4.7,0,1,1,4.58,8.22L212,371.26A4.7,4.7,0,0,1,209.72,371.85Z" style="fill:#fff"></path></g><g style="opacity:0.7000000000000001"><path d="M323.2,334.24H283.56a4.71,4.71,0,0,1,0-9.42H323.2a4.71,4.71,0,0,1,0,9.42Z" style="fill:#fff"></path></g><g style="opacity:0.7000000000000001"><path d="M334.71,330.27a4.71,4.71,0,0,1-3.75-7.55l46.23-60.84a4.71,4.71,0,1,1,7.5,5.7l-46.23,60.83A4.7,4.7,0,0,1,334.71,330.27Z" style="fill:#fff"></path></g><path d="M380.61,232.16a3.75,3.75,0,0,0-3.61-2.67H267.8a3.8,3.8,0,0,0-3,1.48l-54.44,71.64a3.76,3.76,0,0,1-3,1.49H155.48a3.79,3.79,0,0,0-1.83.48L99.1,334.94a3.64,3.64,0,0,0-1.91,3.72c.21,1.75,1.63,15.79,1.93,17.27a3.7,3.7,0,0,0,3.7,3H206a3.78,3.78,0,0,0,1.83-.47l66.39-37a3.79,3.79,0,0,1,1.83-.48h51.88a3.78,3.78,0,0,0,3-1.48l51-67.08a3.74,3.74,0,0,0,.76-2.67C382.61,249.61,380.94,233.25,380.61,232.16Z" style="fill:#263238"></path><path d="M380.61,232.16a3.75,3.75,0,0,0-3.61-2.67H267.8a3.8,3.8,0,0,0-3,1.48l-54.44,71.64a3.76,3.76,0,0,1-3,1.49H155.48a3.79,3.79,0,0,0-1.83.48L99.1,334.94a3.64,3.64,0,0,0-1.91,3.72c.21,1.75,1.63,15.79,1.93,17.27a3.7,3.7,0,0,0,3.7,3H206a3.78,3.78,0,0,0,1.83-.47l66.39-37a3.79,3.79,0,0,1,1.83-.48h51.88a3.78,3.78,0,0,0,3-1.48l51-67.08a3.74,3.74,0,0,0,.76-2.67C382.61,249.61,380.94,233.25,380.61,232.16Z" style="fill:#fff;opacity:0.2"></path><path d="M380,235.54l-51,67.07a3.76,3.76,0,0,1-3,1.49H274.15a3.82,3.82,0,0,0-1.84.48l-66.39,36.94a3.68,3.68,0,0,1-1.83.48H100.93a3.77,3.77,0,0,1-1.83-7.06l54.55-30.36a3.79,3.79,0,0,1,1.83-.48h51.88a3.76,3.76,0,0,0,3-1.49L264.8,231a3.8,3.8,0,0,1,3-1.48H377A3.77,3.77,0,0,1,380,235.54Z" style="fill:#fff;opacity:0.2"></path><path d="M319.49,319.91a2,2,0,0,1-2,2.09H276a2.79,2.79,0,0,0-1.38.36L208.27,359.3a4.86,4.86,0,0,1-2.3.59H102.81a4.62,4.62,0,0,1-4.61-3.78c-.2-1-.81-6.65-1.47-12.87-.12-1.15-.22-2.16-.31-3s-.13-1.24-.17-1.5a4.64,4.64,0,0,1,2.39-4.67l54.55-30.35a4.72,4.72,0,0,1,2.3-.6H316.76a2,2,0,0,1,2,1.9Z" style="fill:#7E57C2"></path><g style="opacity:0.2"><path d="M272.26,303.16a3,3,0,0,0-1.37.35L204.5,340.46a4.72,4.72,0,0,1-2.29.6H99.05a4.6,4.6,0,0,1-2.63-.78c-.08-.72-.13-1.24-.17-1.5a4.64,4.64,0,0,1,2.39-4.67l54.55-30.35a4.72,4.72,0,0,1,2.3-.6Z" style="fill:#fff"></path></g><path d="M196,298.4H77.4c-2,0-3.69,2.35-3.69,5.26v73.25c0,2.91,1.66,5.26,3.69,5.26H196c2,0,3.69-2.35,3.69-5.26V303.66C199.72,300.75,198.06,298.4,196,298.4Zm-98.19,15a3,3,0,0,1-2.4,1.42h-12c-1.88,0-3.4-2.16-3.4-4.85a6,6,0,0,1,1-3.42,3,3,0,0,1,2.4-1.42h12c1.88,0,3.39,2.17,3.39,4.84A6,6,0,0,1,97.84,313.43Zm94.59,0a3,3,0,0,1-2.4,1.42H178c-1.87,0-3.39-2.16-3.39-4.85a6,6,0,0,1,1-3.42,3,3,0,0,1,2.4-1.42h12c1.87,0,3.39,2.17,3.39,4.84A6.07,6.07,0,0,1,192.43,313.43Z" style="fill:#7E57C2"></path><path d="M196,298.4H77.4c-2,0-3.69,2.35-3.69,5.26v73.25c0,2.91,1.66,5.26,3.69,5.26H196c2,0,3.69-2.35,3.69-5.26V303.66C199.72,300.75,198.06,298.4,196,298.4Zm-98.19,15a3,3,0,0,1-2.4,1.42h-12c-1.88,0-3.4-2.16-3.4-4.85a6,6,0,0,1,1-3.42,3,3,0,0,1,2.4-1.42h12c1.88,0,3.39,2.17,3.39,4.84A6,6,0,0,1,97.84,313.43Zm94.59,0a3,3,0,0,1-2.4,1.42H178c-1.87,0-3.39-2.16-3.39-4.85a6,6,0,0,1,1-3.42,3,3,0,0,1,2.4-1.42h12c1.87,0,3.39,2.17,3.39,4.84A6.07,6.07,0,0,1,192.43,313.43Z" style="fill:#fff;opacity:0.6000000000000001"></path><path d="M194.05,298.4H75.42c-2,0-3.69,2.35-3.69,5.26v73.25c0,2.91,1.66,5.26,3.69,5.26H194.05c2,0,3.69-2.35,3.69-5.26V303.66C197.74,300.75,196.08,298.4,194.05,298.4Zm-98.19,15a3,3,0,0,1-2.41,1.42h-12c-1.88,0-3.4-2.16-3.4-4.85a6,6,0,0,1,1-3.42,3,3,0,0,1,2.4-1.42h12c1.88,0,3.4,2.17,3.4,4.84A6,6,0,0,1,95.86,313.43Zm94.59,0a3,3,0,0,1-2.4,1.42H176c-1.87,0-3.39-2.16-3.39-4.85a6,6,0,0,1,1-3.42,3,3,0,0,1,2.4-1.42h12c1.87,0,3.39,2.17,3.39,4.84A6.07,6.07,0,0,1,190.45,313.43Z" style="fill:#7E57C2"></path><path d="M194.05,298.4H75.42c-2,0-3.69,2.35-3.69,5.26v73.25c0,2.91,1.66,5.26,3.69,5.26H194.05c2,0,3.69-2.35,3.69-5.26V303.66C197.74,300.75,196.08,298.4,194.05,298.4Zm-98.19,15a3,3,0,0,1-2.41,1.42h-12c-1.88,0-3.4-2.16-3.4-4.85a6,6,0,0,1,1-3.42,3,3,0,0,1,2.4-1.42h12c1.88,0,3.4,2.17,3.4,4.84A6,6,0,0,1,95.86,313.43Zm94.59,0a3,3,0,0,1-2.4,1.42H176c-1.87,0-3.39-2.16-3.39-4.85a6,6,0,0,1,1-3.42,3,3,0,0,1,2.4-1.42h12c1.87,0,3.39,2.17,3.39,4.84A6.07,6.07,0,0,1,190.45,313.43Z" style="fill:#fff;opacity:0.7000000000000001"></path><rect x="78.03" y="331.69" width="113.41" height="32.99" rx="2.95" style="opacity:0.1"></rect><rect x="71.73" y="370.56" width="126.01" height="1.58" style="fill:#7E57C2"></rect><path d="M111.72,296.38v39.47H151V296.38Zm25.52,9.72H125.52v-7.69h11.72Z" style="fill:#7E57C2"></path><rect x="112.1" y="313.63" width="8.22" height="20.66" style="fill:#7E57C2"></rect><rect x="112.1" y="313.63" width="8.22" height="20.66" style="opacity:0.2"></rect><rect x="142.46" y="313.63" width="8.22" height="20.66" style="fill:#7E57C2"></rect><rect x="142.46" y="313.63" width="8.22" height="20.66" style="opacity:0.2"></rect><rect x="110.12" y="313.63" width="8.22" height="20.66" style="fill:#7E57C2"></rect><rect x="110.12" y="313.63" width="8.22" height="20.66" style="fill:#fff;opacity:0.2"></rect><rect x="140.48" y="313.63" width="8.22" height="20.66" style="fill:#7E57C2"></rect><rect x="140.48" y="313.63" width="8.22" height="20.66" style="fill:#fff;opacity:0.2"></rect><rect x="149.05" y="296.38" width="5.31" height="2.02" style="fill:#7E57C2"></rect><polygon points="369.14 403.22 373.46 407.54 376.25 407.54 377.48 400.6 369.14 403.22" style="fill:#7E57C2"></polygon><path d="M380.93,398.15h-3.28c-3.79,0-6.87,3.84-6.87,8.59s3.08,8.59,6.87,8.59h3.28c3.79,0,6.87-3.85,6.87-8.59S384.72,398.15,380.93,398.15Z" style="fill:#263238"></path><ellipse cx="380.93" cy="406.74" rx="6.88" ry="8.59" style="fill:#fff;opacity:0.30000000000000004"></ellipse><ellipse cx="380.93" cy="406.74" rx="4.42" ry="6.14" style="fill:#fff;opacity:0.30000000000000004"></ellipse><path d="M382.19,405.93V399a5,5,0,0,0-1.48-3.56l-4-4h-7.55v11.8h6.52l3.83,3.83a1.6,1.6,0,0,0,1.2.46h0A1.59,1.59,0,0,0,382.19,405.93Z" style="fill:#7E57C2"></path><path d="M382.19,399v6.93a1.57,1.57,0,0,1-1.5,1.57,1.54,1.54,0,0,1-1.2-.46l-3.83-3.82h-6.52v-11.8h7.55l4,4A5,5,0,0,1,382.19,399Z" style="fill:#fff;opacity:0.7000000000000001"></path><path d="M382.19,399v6.93a1.57,1.57,0,0,1-1.5,1.57,1.54,1.54,0,0,1-1.2-.46l-3.83-3.82v-11.8h1l4,4A5,5,0,0,1,382.19,399Z" style="fill:#fff;opacity:0.2"></path><rect x="367.95" y="379.05" width="16.6" height="13.22" rx="1.13" style="fill:#7E57C2"></rect><path d="M384.55,380.18v11a1.12,1.12,0,0,1-1.13,1.13H369.09a1.12,1.12,0,0,1-1.13-1.13v-11a1.13,1.13,0,0,1,1.13-1.13h14.33A1.13,1.13,0,0,1,384.55,380.18Z" style="fill:#fff;opacity:0.5"></path><path d="M384.55,380.18v11a1.12,1.12,0,0,1-1.13,1.13h-7.75a1.13,1.13,0,0,1-1.13-1.13v-11a1.14,1.14,0,0,1,1.13-1.13h7.75A1.13,1.13,0,0,1,384.55,380.18Z" style="fill:#fff;opacity:0.2"></path><path d="M216.15,380.17H372.7a.61.61,0,0,1,.61.61v9.38a.61.61,0,0,1-.61.61H216.15a0,0,0,0,1,0,0V380.17A0,0,0,0,1,216.15,380.17Z" style="fill:#7E57C2"></path><path d="M216.15,380.17H372.7a.61.61,0,0,1,.61.61v9.38a.61.61,0,0,1-.61.61H216.15a0,0,0,0,1,0,0V380.17A0,0,0,0,1,216.15,380.17Z" style="fill:#fff;opacity:0.7000000000000001"></path><polygon points="209.04 403.22 213.36 407.54 216.15 407.54 217.38 400.6 209.04 403.22" style="fill:#7E57C2"></polygon><path d="M220.83,398.15h-3.28c-3.79,0-6.87,3.84-6.87,8.59s3.08,8.59,6.87,8.59h3.28c3.79,0,6.87-3.85,6.87-8.59S224.62,398.15,220.83,398.15Z" style="fill:#263238"></path><ellipse cx="220.83" cy="406.74" rx="6.88" ry="8.59" style="fill:#fff;opacity:0.30000000000000004"></ellipse><ellipse cx="220.83" cy="406.74" rx="4.42" ry="6.14" style="fill:#fff;opacity:0.30000000000000004"></ellipse><path d="M222.09,405.93V399a5,5,0,0,0-1.48-3.56l-4-4H209v11.8h6.52l3.83,3.83a1.6,1.6,0,0,0,1.2.46h0A1.59,1.59,0,0,0,222.09,405.93Z" style="fill:#7E57C2"></path><path d="M222.09,399v6.93a1.57,1.57,0,0,1-1.5,1.57,1.54,1.54,0,0,1-1.2-.46l-3.83-3.82H209v-11.8h7.55l4,4A5,5,0,0,1,222.09,399Z" style="fill:#fff;opacity:0.7000000000000001"></path><path d="M222.09,399v6.93a1.57,1.57,0,0,1-1.5,1.57,1.54,1.54,0,0,1-1.2-.46l-3.83-3.82v-11.8h1l4,4A5,5,0,0,1,222.09,399Z" style="fill:#fff;opacity:0.2"></path><rect x="207.85" y="379.05" width="16.6" height="13.22" rx="1.13" style="fill:#7E57C2"></rect><path d="M224.45,380.18v11a1.12,1.12,0,0,1-1.13,1.13H209a1.12,1.12,0,0,1-1.13-1.13v-11a1.13,1.13,0,0,1,1.13-1.13h14.33A1.13,1.13,0,0,1,224.45,380.18Z" style="fill:#fff;opacity:0.5"></path><path d="M224.45,380.18v11a1.12,1.12,0,0,1-1.13,1.13h-7.75a1.13,1.13,0,0,1-1.13-1.13v-11a1.14,1.14,0,0,1,1.13-1.13h7.75A1.13,1.13,0,0,1,224.45,380.18Z" style="fill:#fff;opacity:0.2"></path></g><g id="freepik--Plant--inject-10"><path d="M405,382s1.36-10,7.76-11.1,4.47-5.93,6.13-7.8,6,3.65,2.29,9-.68,3.67-2.29,8.64S404.43,390.33,405,382Z" style="fill:#263238"></path><path d="M405,382s1.36-10,7.76-11.1,4.47-5.93,6.13-7.8,6,3.65,2.29,9-.68,3.67-2.29,8.64S404.43,390.33,405,382Z" style="fill:#fff;isolation:isolate;opacity:0.2"></path><path d="M407.15,388.79a.28.28,0,0,1-.13,0,.35.35,0,0,1-.21-.46c0-.11,4-10.65.16-26.71a67.81,67.81,0,0,0-5-13.34c-3.69-8-6.87-14.92-2.16-27.81,1.46-4,3-7.72,4.45-11.33,5.43-13.33,9.71-23.86,5.18-33.63a.37.37,0,0,1,.18-.48.36.36,0,0,1,.48.18c4.66,10.05.32,20.71-5.17,34.2-1.47,3.61-3,7.33-4.44,11.31-4.61,12.61-1.63,19.07,2.13,27.25a70.15,70.15,0,0,1,5,13.48c3.87,16.29-.16,27-.2,27.14A.36.36,0,0,1,407.15,388.79Z" style="fill:#263238"></path><path d="M409,386.53s4.13-6.23-1.83-9.43-7.17-.63-10.86-2.93-6.49-7.89-7.12-4.31,3.64,5.6,2.13,7.24S401.33,389.34,409,386.53Z" style="fill:#263238"></path><path d="M412,280.37s3-12.52-6.11-12S407.69,279.41,412,280.37Z" style="fill:#263238"></path><path d="M404.79,290.39s-3.61-10.88-9.9-8S398.35,291.12,404.79,290.39Z" style="fill:#263238"></path><path d="M415.87,290.47s-1.69-8.77,5.17-9.5S425.47,288.26,415.87,290.47Z" style="fill:#263238"></path><path d="M412.74,308.9s8.57-9,12.38-3.11S418.75,313.75,412.74,308.9Z" style="fill:#263238"></path><path d="M396.29,308.75s-2.83-13.53-9.94-8.64S389.9,310.64,396.29,308.75Z" style="fill:#263238"></path><path d="M391.3,328.85s4.39-14.25-5.71-11.88S383.81,326.07,391.3,328.85Z" style="fill:#263238"></path><path d="M407.39,332.51s7.82-10.86,14.68-8.17S424.35,337.59,407.39,332.51Z" style="fill:#263238"></path><path d="M401.35,355.69s-8.66-15.75-14.77-9.72S391.86,359.38,401.35,355.69Z" style="fill:#263238"></path><path d="M412,353.88s-3-12.52,4.41-12.09S422.45,350.13,412,353.88Z" style="fill:#263238"></path><g style="isolation:isolate;opacity:0.2"><path d="M412,280.37s3-12.52-6.11-12S407.69,279.41,412,280.37Z" style="fill:#fff"></path><path d="M404.79,290.39s-3.61-10.88-9.9-8S398.35,291.12,404.79,290.39Z" style="fill:#fff"></path><path d="M415.87,290.47s-1.69-8.77,5.17-9.5S425.47,288.26,415.87,290.47Z" style="fill:#fff"></path><path d="M412.74,308.9s8.57-9,12.38-3.11S418.75,313.75,412.74,308.9Z" style="fill:#fff"></path><path d="M396.29,308.75s-2.83-13.53-9.94-8.64S389.9,310.64,396.29,308.75Z" style="fill:#fff"></path><path d="M391.3,328.85s4.39-14.25-5.71-11.88S383.81,326.07,391.3,328.85Z" style="fill:#fff"></path><path d="M407.39,332.51s7.82-10.86,14.68-8.17S424.35,337.59,407.39,332.51Z" style="fill:#fff"></path><path d="M401.35,355.69s-8.66-15.75-14.77-9.72S391.86,359.38,401.35,355.69Z" style="fill:#fff"></path><path d="M412,353.88s-3-12.52,4.41-12.09S422.45,350.13,412,353.88Z" style="fill:#fff"></path></g><path d="M409.33,297.34h-.08a.38.38,0,0,1-.23-.16c0-.07-4.08-6.5-6.86-7.88a.37.37,0,0,1-.17-.49.36.36,0,0,1,.49-.16c2.62,1.3,6.08,6.47,6.95,7.83,4.84-3.39,8.14-9.2,8.18-9.26a.36.36,0,1,1,.63.35c-.15.26-3.56,6.27-8.71,9.72A.36.36,0,0,1,409.33,297.34Z" style="fill:#263238"></path><path d="M402.32,315h0a.37.37,0,0,1-.26-.15c0-.07-5-7.05-10.88-9.91a.36.36,0,1,1,.32-.65c5.37,2.62,9.85,8.37,10.92,9.81,7.4-6.37,17.26-6.91,17.36-6.91a.37.37,0,0,1,.38.34.36.36,0,0,1-.34.38c-.1,0-10,.55-17.22,7A.36.36,0,0,1,402.32,315Z" style="fill:#263238"></path><path d="M398.78,337.8a.36.36,0,0,1-.2-.06c-5.84-4-10.93-14.59-11.14-15a.36.36,0,0,1,.65-.31c.05.11,5.1,10.65,10.69,14.61,1.59-1.07,11.32-7.46,19.11-8.24a.36.36,0,0,1,.39.33.35.35,0,0,1-.32.39c-8.13.81-18.86,8.19-19,8.26A.39.39,0,0,1,398.78,337.8Z" style="fill:#263238"></path><path d="M407.15,360.45a.34.34,0,0,1-.28-.13,24.43,24.43,0,0,0-12.81-6.94.36.36,0,1,1,.15-.7,25.19,25.19,0,0,1,13,6.93c3.8-2.94,8.29-13.67,8.33-13.78a.36.36,0,0,1,.47-.19.35.35,0,0,1,.2.47c-.19.47-4.82,11.52-8.85,14.28A.36.36,0,0,1,407.15,360.45Z" style="fill:#263238"></path><path d="M408.34,385s3.55-5.64,7.55-6.44,5.73-5.42,7.21-2.64S420.5,387.93,408.34,385Z" style="fill:#263238"></path><polygon points="424.95 384.15 423.75 394.5 423.59 395.86 423.1 400.2 422.73 403.27 422.5 405.26 421.34 415.33 391.38 415.33 390.21 405.26 389.98 403.27 389.62 400.2 389.12 395.86 388.96 394.5 387.76 384.15 424.95 384.15" style="fill:#7E57C2"></polygon><polygon points="423.1 400.2 422.73 403.27 389.98 403.27 389.62 400.2 423.1 400.2" style="fill:#fff;isolation:isolate;opacity:0.4"></polygon><polygon points="422.5 405.26 421.34 415.33 391.38 415.33 390.21 405.26 422.5 405.26" style="fill:#fff;isolation:isolate;opacity:0.4"></polygon><polygon points="423.75 394.5 423.59 395.86 389.12 395.86 388.96 394.5 423.75 394.5" style="fill:#fff;isolation:isolate;opacity:0.4"></polygon></g></svg>