<svg xmlns="http://www.w3.org/2000/svg" viewBox="0 0 500 500"><g id="freepik--background-complete--inject-91"><rect y="382.4" width="500" height="0.25" style="fill:#ebebeb"></rect><rect x="416.78" y="398.49" width="33.12" height="0.25" style="fill:#ebebeb"></rect><rect x="322.53" y="401.21" width="8.69" height="0.25" style="fill:#ebebeb"></rect><rect x="396.59" y="389.21" width="19.19" height="0.25" style="fill:#ebebeb"></rect><rect x="52.46" y="390.89" width="43.19" height="0.25" style="fill:#ebebeb"></rect><rect x="104.56" y="390.89" width="6.33" height="0.25" style="fill:#ebebeb"></rect><rect x="131.47" y="395.11" width="93.68" height="0.25" style="fill:#ebebeb"></rect><path d="M237,337.8H43.91a5.71,5.71,0,0,1-5.7-5.71V60.66A5.71,5.71,0,0,1,43.91,55H237a5.71,5.71,0,0,1,5.71,5.71V332.09A5.71,5.71,0,0,1,237,337.8ZM43.91,55.2a5.46,5.46,0,0,0-5.45,5.46V332.09a5.46,5.46,0,0,0,5.45,5.46H237a5.47,5.47,0,0,0,5.46-5.46V60.66A5.47,5.47,0,0,0,237,55.2Z" style="fill:#ebebeb"></path><path d="M453.31,337.8H260.21a5.72,5.72,0,0,1-5.71-5.71V60.66A5.72,5.72,0,0,1,260.21,55h193.1A5.71,5.71,0,0,1,459,60.66V332.09A5.71,5.71,0,0,1,453.31,337.8ZM260.21,55.2a5.47,5.47,0,0,0-5.46,5.46V332.09a5.47,5.47,0,0,0,5.46,5.46h193.1a5.47,5.47,0,0,0,5.46-5.46V60.66a5.47,5.47,0,0,0-5.46-5.46Z" style="fill:#ebebeb"></path><circle cx="386.73" cy="91.64" r="16.7" style="fill:#e0e0e0"></circle><circle cx="386.73" cy="91.64" r="14.2" style="fill:#f0f0f0"></circle><polyline points="386.06 81.9 386.06 91.82 379.48 88.1" style="fill:#f0f0f0"></polyline><path d="M386.06,92.82a1,1,0,0,1-.49-.13L379,89a1,1,0,0,1,1-1.74l5.09,2.88V81.9a1,1,0,0,1,2,0v9.92a1,1,0,0,1-.5.87A1,1,0,0,1,386.06,92.82Z" style="fill:#e0e0e0"></path><rect x="86.32" y="92.33" width="94.67" height="213.27" style="fill:#f5f5f5"></rect><rect x="31.02" y="155.2" width="205.27" height="87.53" transform="translate(332.62 65.3) rotate(90)" style="fill:#fafafa"></rect><rect x="132.65" y="95.3" width="2.01" height="208.3" style="fill:#f5f5f5"></rect><rect x="84.14" y="89.55" width="99.04" height="10.04" style="fill:#f5f5f5"></rect><rect x="84.14" y="100.7" width="99.04" height="1.19" style="fill:#f5f5f5"></rect><rect x="84.14" y="103.4" width="99.04" height="1.19" style="fill:#f5f5f5"></rect><rect x="84.14" y="106.1" width="99.04" height="1.19" style="fill:#f5f5f5"></rect><rect x="84.14" y="108.8" width="99.04" height="1.19" style="fill:#f5f5f5"></rect><rect x="84.14" y="111.5" width="99.04" height="1.19" style="fill:#f5f5f5"></rect><rect x="84.14" y="114.2" width="99.04" height="1.19" style="fill:#f5f5f5"></rect><rect x="84.14" y="116.9" width="99.04" height="1.19" style="fill:#f5f5f5"></rect><rect x="84.14" y="119.6" width="99.04" height="1.19" style="fill:#f5f5f5"></rect><rect x="84.14" y="122.3" width="99.04" height="1.19" style="fill:#f5f5f5"></rect><rect x="84.14" y="125" width="99.04" height="1.19" style="fill:#f5f5f5"></rect><rect x="84.14" y="127.7" width="99.04" height="1.19" style="fill:#f5f5f5"></rect><rect x="84.14" y="130.4" width="99.04" height="1.19" style="fill:#f5f5f5"></rect><rect x="84.14" y="133.1" width="99.04" height="1.19" style="fill:#f5f5f5"></rect><rect x="84.14" y="135.8" width="99.04" height="1.19" style="fill:#f5f5f5"></rect><rect x="84.14" y="138.5" width="99.04" height="1.19" style="fill:#f5f5f5"></rect><rect x="84.14" y="141.2" width="99.04" height="1.19" style="fill:#f5f5f5"></rect><rect x="84.14" y="143.9" width="99.04" height="1.19" style="fill:#f5f5f5"></rect><rect x="84.14" y="146.6" width="99.04" height="1.19" style="fill:#f5f5f5"></rect><rect x="198.41" y="92.33" width="94.67" height="213.27" style="fill:#f5f5f5"></rect><rect x="143.11" y="155.2" width="205.27" height="87.53" transform="translate(444.71 -46.78) rotate(90)" style="fill:#fafafa"></rect><rect x="244.74" y="95.3" width="2.01" height="208.3" style="fill:#f5f5f5"></rect><rect x="196.22" y="89.55" width="99.04" height="10.04" style="fill:#f5f5f5"></rect><rect x="196.22" y="100.7" width="99.04" height="1.19" style="fill:#f5f5f5"></rect><rect x="196.22" y="103.4" width="99.04" height="1.19" style="fill:#f5f5f5"></rect><rect x="196.22" y="106.1" width="99.04" height="1.19" style="fill:#f5f5f5"></rect><rect x="196.22" y="108.8" width="99.04" height="1.19" style="fill:#f5f5f5"></rect><rect x="196.22" y="111.5" width="99.04" height="1.19" style="fill:#f5f5f5"></rect><rect x="196.22" y="114.2" width="99.04" height="1.19" style="fill:#f5f5f5"></rect><rect x="196.22" y="116.9" width="99.04" height="1.19" style="fill:#f5f5f5"></rect><rect x="196.22" y="119.6" width="99.04" height="1.19" style="fill:#f5f5f5"></rect><rect x="196.22" y="122.3" width="99.04" height="1.19" style="fill:#f5f5f5"></rect><rect x="196.22" y="125" width="99.04" height="1.19" style="fill:#f5f5f5"></rect><rect x="196.22" y="127.7" width="99.04" height="1.19" style="fill:#f5f5f5"></rect><rect x="196.22" y="130.4" width="99.04" height="1.19" style="fill:#f5f5f5"></rect><rect x="196.22" y="133.1" width="99.04" height="1.19" style="fill:#f5f5f5"></rect><rect x="196.22" y="135.8" width="99.04" height="1.19" style="fill:#f5f5f5"></rect><rect x="196.22" y="138.5" width="99.04" height="1.19" style="fill:#f5f5f5"></rect><rect x="196.22" y="141.2" width="99.04" height="1.19" style="fill:#f5f5f5"></rect><rect x="196.22" y="143.9" width="99.04" height="1.19" style="fill:#f5f5f5"></rect><rect x="196.22" y="146.6" width="99.04" height="1.19" style="fill:#f5f5f5"></rect></g><g id="freepik--Shadow--inject-91"><ellipse id="freepik--path--inject-91" cx="250" cy="416.24" rx="193.89" ry="11.32" style="fill:#f5f5f5"></ellipse></g><g id="freepik--Plant--inject-91"><path d="M90.21,383h0a.38.38,0,0,1-.34-.44c0-.07.06-.84.12-2.17.1-2,.26-6.14.2-11.71a1,1,0,0,0,0-.24c-.07-6.23-.41-12.35-1-18.21-.54-5.47-1.31-10.78-2.29-15.79a127.13,127.13,0,0,0-3.19-12.76s0,0,0,0h0c-.19-.61-.39-1.23-.6-1.85s-.33-1-.51-1.51c-.46-1.3-.87-2.55-1.23-3.71-.8-2.56-1.51-5.11-2.1-7.58-.36-1.49-.68-2.95-1-4.34a95.46,95.46,0,0,1-1.82-16.08c0-2.12,0-4.24.09-6.3a63.22,63.22,0,0,1,.69-6.44c0-.16,0-.3.07-.43l0-.2a.4.4,0,0,1,.11-.27.39.39,0,0,1,.55,0,.41.41,0,0,1,.12.39h0l0,.21c0,.14,0,.29-.07.44a58.83,58.83,0,0,0-.68,6.35c-.11,2-.14,4.14-.09,6.24A94.93,94.93,0,0,0,79,302.44c.27,1.38.59,2.83.94,4.3.59,2.46,1.29,5,2.09,7.53.36,1.15.77,2.39,1.22,3.69.18.51.35,1,.52,1.53s.41,1.23.6,1.85c0,0,0,0,0,0h0a125.58,125.58,0,0,1,3.21,12.85c1,5,1.76,10.36,2.31,15.86.58,5.89.92,12,1,18.26a2.61,2.61,0,0,1,0,.28c.06,5.57-.1,9.75-.21,11.74-.06,1.36-.11,2.16-.12,2.23A.4.4,0,0,1,90.21,383Z" style="fill:#407BFF"></path><path d="M77.71,273.28l0,0v0a12.43,12.43,0,0,1,2.18-1.66,11.77,11.77,0,0,1,2.75-1.18" style="fill:#407BFF"></path><path d="M77.71,273.67l-.16,0a.4.4,0,0,1-.2-.52l.08-.12,0,0h0A12,12,0,0,1,82.56,270a.39.39,0,1,1,.21.76,11.28,11.28,0,0,0-2.65,1.14,11.52,11.52,0,0,0-2.1,1.6h0A.41.41,0,0,1,77.71,273.67Z" style="fill:#407BFF"></path><path d="M76.94,280.63a.38.38,0,0,1-.25-.09L74,278.34a.4.4,0,1,1,.51-.61l2.65,2.2a.4.4,0,0,1,0,.56A.41.41,0,0,1,76.94,280.63Z" style="fill:#407BFF"></path><path d="M81.69,314.82a.42.42,0,0,1-.39-.41h0a9.8,9.8,0,0,1,.54-2.15,10.25,10.25,0,0,1,1.46-2.75,11.19,11.19,0,0,1,1.59-1.72.4.4,0,0,1,.52.6A10.08,10.08,0,0,0,83.93,310a10.51,10.51,0,0,0-1.85,4.47.35.35,0,0,1-.37.37Z" style="fill:#407BFF"></path><path d="M84.05,321.89a.4.4,0,0,1-.36-.23,6.67,6.67,0,0,0-3.93-3.56.39.39,0,1,1,.24-.74,7.41,7.41,0,0,1,4.41,4,.39.39,0,0,1-.2.52A.45.45,0,0,1,84.05,321.89Z" style="fill:#407BFF"></path><path d="M90.05,357c-.9-1-1.72-4.89-2.16-7-.1-.5-.19-.93-.26-1.24" style="fill:#407BFF"></path><path d="M90.05,357.37a.37.37,0,0,1-.29-.13c-.9-1-1.63-4.21-2.25-7.16l-.27-1.23a.4.4,0,0,1,.77-.18c.07.31.16.74.27,1.25.4,1.91,1.24,5.88,2.06,6.79a.39.39,0,0,1-.29.66Z" style="fill:#407BFF"></path><path d="M79.61,307.27a.4.4,0,0,1-.4-.37c0-.64-1-15.83,7.33-21.91a.39.39,0,0,1,.46.64c-8,5.81-7,21.06-7,21.21a.4.4,0,0,1-.36.43Z" style="fill:#407BFF"></path><path d="M80.3,340.31c-1,3.68,7.17,10.25,7.17,10.25s10.3-1.75,11.26-5.43-1.92-9.5-7-10.83S81.27,336.64,80.3,340.31Z" style="fill:#407BFF"></path><path d="M69.69,296.64c1.16,3.82,8.69,6.23,8.69,6.23s4.9-6.2,3.74-10S76.68,285,73.25,286,68.53,292.83,69.69,296.64Z" style="fill:#407BFF"></path><path d="M89.76,308.14a9.84,9.84,0,0,1-3.1,1.93,3.37,3.37,0,0,1-3.43-.65c-1-1.1-.85-2.89-.29-4.3,1.13-2.79,5.51-7.64,9.09-6.46C97.19,300.36,92,306.35,89.76,308.14Z" style="fill:#407BFF"></path><path d="M79.66,315.57c.71.8,1.46,1.81,1.14,2.82a2.14,2.14,0,0,1-2.29,1.25,6.15,6.15,0,0,1-2.57-1.12c-1.85-1.16-5.64-3.62-3.4-6.16S78.18,313.89,79.66,315.57Z" style="fill:#407BFF"></path><path d="M93.15,280.12a1.84,1.84,0,0,1,1.73,1.28c.2.89-.51,1.7-1.2,2.28-1.72,1.45-6.91,5.39-8.27,1.87C84.14,282.22,90.77,280,93.15,280.12Z" style="fill:#407BFF"></path><path d="M82.76,268.79c1.11.06,2.19-.39,3.31-.37s2.37.86,2.18,1.95-1.42,1.4-2.44,1.51a20,20,0,0,1-5.24-.13,1.6,1.6,0,0,1-1.08-.49c-.48-.64.2-1.56,1-1.82a10.8,10.8,0,0,0,2.29-.66Z" style="fill:#407BFF"></path><path d="M72.3,276.87c-1.11.08-2.2-.35-3.31-.3s-2.36.91-2.14,2,1.44,1.36,2.46,1.45a20,20,0,0,0,5.24-.24,1.61,1.61,0,0,0,1.07-.52c.46-.65-.23-1.55-1-1.8a10.79,10.79,0,0,1-2.3-.6Z" style="fill:#407BFF"></path><path d="M77.4,274.75h0a.4.4,0,0,1-.37-.42c.15-2.16-.08-4.23-.49-4.35a.4.4,0,0,1,.22-.76c1.26.37,1.16,3.73,1.06,5.16A.4.4,0,0,1,77.4,274.75Z" style="fill:#407BFF"></path><path d="M78.14,269.69a9.5,9.5,0,0,0-2.91-3.93c-1.37-.91-3.51-.89-4.42.49s.17,3.74,1.86,4.46,3.63.4,5.45.06V270Z" style="fill:#407BFF"></path><path d="M91.43,396.23h-.08a.4.4,0,0,1-.31-.46c2.64-14.1,10.66-20.25,10.74-20.31a.4.4,0,0,1,.55.08.39.39,0,0,1-.08.55c-.08.06-7.86,6.05-10.44,19.82A.39.39,0,0,1,91.43,396.23Z" style="fill:#407BFF"></path><path d="M99.72,378.4a.4.4,0,0,1-.14-.77,8.65,8.65,0,0,1,4.14-.15.4.4,0,0,1,.33.46.4.4,0,0,1-.46.32,8.21,8.21,0,0,0-3.74.11A.31.31,0,0,1,99.72,378.4Z" style="fill:#407BFF"></path><path d="M97.94,380.6a.4.4,0,0,1-.4-.37,17.21,17.21,0,0,1,2.7-9.75.4.4,0,1,1,.65.45,16.65,16.65,0,0,0-2.56,9.26.4.4,0,0,1-.37.41Z" style="fill:#407BFF"></path><path d="M95.11,385.21a.4.4,0,0,1-.27-.11.4.4,0,0,1,0-.56,5.61,5.61,0,0,1,5.46-1.33.4.4,0,0,1-.24.76,4.81,4.81,0,0,0-4.65,1.12A.4.4,0,0,1,95.11,385.21Z" style="fill:#407BFF"></path><path d="M93.67,388.4a.4.4,0,0,1-.36-.22,13,13,0,0,1-.83-6.67.39.39,0,0,1,.44-.35.39.39,0,0,1,.34.44,12.25,12.25,0,0,0,.77,6.24.4.4,0,0,1-.19.53A.51.51,0,0,1,93.67,388.4Z" style="fill:#407BFF"></path><path d="M92.24,391.59c0,.07-.3.37.83.44,2.78.18,7.69.12,9.46-2.23,2.53-3.37-3.53-3.21-3-5.09s7.11-.16,8.3-2.83-3.53-2.27-3.36-3.65,5.21.54,6.77-2.28-2.75-1.4-2.08-2.57,6-6,3.78-7.14-7.3,3.87-9,4.38-2.24-4.56-4.44-2.92S99,377,96.41,377.9c-1.93.65-1-2.06-3.35-2C89.79,375.94,89,386.63,92.24,391.59Z" style="fill:#407BFF"></path><g style="opacity:0.30000000000000004"><path d="M92.24,391.59c0,.07-.3.37.83.44,2.78.18,7.69.12,9.46-2.23,2.53-3.37-3.53-3.21-3-5.09s7.11-.16,8.3-2.83-3.53-2.27-3.36-3.65,5.21.54,6.77-2.28-2.75-1.4-2.08-2.57,6-6,3.78-7.14-7.3,3.87-9,4.38-2.24-4.56-4.44-2.92S99,377,96.41,377.9c-1.93.65-1-2.06-3.35-2C89.79,375.94,89,386.63,92.24,391.59Z" style="fill:#fff"></path></g><path d="M91.12,396.58a.4.4,0,0,1-.38-.3,43.2,43.2,0,0,0-11.25-19.17.39.39,0,1,1,.52-.58A43.76,43.76,0,0,1,91.5,396.08a.4.4,0,0,1-.28.49Z" style="fill:#407BFF"></path><path d="M84.24,382.79h-.08l-.08,0h0a10.9,10.9,0,0,0-4.3-.66.39.39,0,1,1,0-.78,11.39,11.39,0,0,1,4.62.7l.06,0a.39.39,0,0,1,.27.45A.4.4,0,0,1,84.24,382.79Zm.12-.77.08,0Zm0,0Z" style="fill:#407BFF"></path><path d="M85.82,384.72h0a.4.4,0,0,1-.38-.42,14.51,14.51,0,0,0-2.27-8.12.4.4,0,0,1,.65-.45,15.06,15.06,0,0,1,2.41,8.61A.4.4,0,0,1,85.82,384.72Z" style="fill:#407BFF"></path><path d="M87.47,387.29a.41.41,0,0,1-.27-.1,4.26,4.26,0,0,0-4.07-.82.4.4,0,0,1-.24-.76,5.1,5.1,0,0,1,4.85,1,.4.4,0,0,1,0,.56A.4.4,0,0,1,87.47,387.29Z" style="fill:#407BFF"></path><path d="M89.61,391.56a.35.35,0,0,1-.17,0,.4.4,0,0,1-.19-.52,11,11,0,0,0,.67-5.5.39.39,0,0,1,.34-.44.39.39,0,0,1,.44.34,11.74,11.74,0,0,1-.73,5.94A.4.4,0,0,1,89.61,391.56Z" style="fill:#407BFF"></path><path d="M90.91,394.59c-2.15.13-5.9-1.7-7.42-3.58s2.61-.86,2.12-2.38-5.5-.17-6.54-2.34,2.65-1.82,2.45-3-4-.73-5.28-3,2.07-1.13,1.5-2.08-4.92-4.88-3.21-5.81,5.81,3.17,7.14,3.59,1.51-2.54,3.28-1.21.76,7.57,2.8,8.29c1.52.54.76-2.25,2.52-1.62C93.33,382.6,91.78,394.53,90.91,394.59Z" style="fill:#407BFF"></path><g style="opacity:0.2"><path d="M90.91,394.59c-2.15.13-5.9-1.7-7.42-3.58s2.61-.86,2.12-2.38-5.5-.17-6.54-2.34,2.65-1.82,2.45-3-4-.73-5.28-3,2.07-1.13,1.5-2.08-4.92-4.88-3.21-5.81,5.81,3.17,7.14,3.59,1.51-2.54,3.28-1.21.76,7.57,2.8,8.29c1.52.54.76-2.25,2.52-1.62C93.33,382.6,91.78,394.53,90.91,394.59Z" style="fill:#fff"></path></g><path d="M108,398.75c0,10.39,4.59,18.82-18.81,18.82-20.8,0-18.82-8.43-18.82-18.82s8.42-13.34,18.82-13.34S108,388.36,108,398.75Z" style="fill:#263238"></path><rect x="68.42" y="385.22" width="41.66" height="10.31" style="fill:#263238"></rect><rect x="68.42" y="385.22" width="41.66" height="10.31" style="fill:#fff;opacity:0.2;isolation:isolate"></rect></g><g id="freepik--Poster--inject-91"><rect x="360.55" y="135.4" width="53.45" height="85.84" transform="translate(774.55 356.63) rotate(180)" style="fill:#407BFF"></rect><rect x="360.55" y="135.4" width="53.45" height="85.84" transform="translate(774.55 356.63) rotate(180)" style="fill:#fff;opacity:0.7000000000000001"></rect><path d="M378.33,144h-3.94v-2.32h10.73V144h-3.94v10h-2.85Z" style="fill:#407BFF"></path><path d="M400.16,151.72V154H389.39v-1.85l6.76-8.15h-6.62v-2.32H399.9v1.85l-6.75,8.15Z" style="fill:#407BFF"></path><path d="M373.37,161.25c0,2-1.51,3.25-3.91,3.25h-1.81V167h-2.08v-9h3.89C371.86,158,373.37,159.23,373.37,161.25Zm-2.11,0c0-1-.64-1.57-1.91-1.57h-1.7v3.12h1.7C370.62,162.8,371.26,162.23,371.26,161.25Z" style="fill:#407BFF"></path><path d="M379,159.68h-2.88V158H384v1.69h-2.88V167H379Z" style="fill:#407BFF"></path><path d="M387,162.48a4.93,4.93,0,1,1,4.92,4.65A4.66,4.66,0,0,1,387,162.48Zm7.74,0a2.82,2.82,0,1,0-2.82,2.88A2.75,2.75,0,0,0,394.72,162.48Z" style="fill:#407BFF"></path><path d="M400.4,162.48a4.95,4.95,0,0,1,8.58-3l-1.34,1.23a2.87,2.87,0,0,0-2.26-1.06,2.88,2.88,0,1,0,0,5.76,2.85,2.85,0,0,0,2.26-1.07l1.34,1.24a4.95,4.95,0,0,1-8.58-3.05Z" style="fill:#407BFF"></path><path d="M372.59,180v1.3h-6v-1l3.76-4.55h-3.69V174.4h5.78v1L368.68,180Z" style="fill:#407BFF"></path><path d="M375.57,174.4h1.59V180h3.45v1.3h-5Z" style="fill:#407BFF"></path><path d="M389.42,176.89c0,1.53-1.15,2.48-3,2.48h-1.38v1.9h-1.59V174.4h3C388.27,174.4,389.42,175.35,389.42,176.89Zm-1.61,0c0-.76-.49-1.2-1.46-1.2h-1.3v2.39h1.3C387.32,178.08,387.81,177.64,387.81,176.89Z" style="fill:#407BFF"></path><path d="M397.82,180v1.28h-5.31V174.4h5.19v1.27h-3.61v1.49h3.19v1.24h-3.19V180Z" style="fill:#407BFF"></path><path d="M401.05,174.4h3.12c2.25,0,3.79,1.35,3.79,3.43s-1.54,3.44-3.79,3.44h-3.12Zm3,5.56a2.13,2.13,0,1,0,0-4.26h-1.45V180Z" style="fill:#407BFF"></path><path d="M372,188.64v1h-4v-5.17h3.9v1h-2.71v1.12h2.4v.93h-2.4v1.2Z" style="fill:#407BFF"></path><path d="M375.52,185.41h-1.65v-1h4.51v1h-1.66v4.19h-1.2Z" style="fill:#407BFF"></path><path d="M380.1,187a2.83,2.83,0,1,1,2.83,2.67A2.68,2.68,0,0,1,380.1,187Zm4.45,0a1.62,1.62,0,1,0-1.62,1.65A1.58,1.58,0,0,0,384.55,187Z" style="fill:#407BFF"></path><path d="M388.14,184.43h2.35a2.6,2.6,0,1,1,0,5.17h-2.35Zm2.29,4.19a1.61,1.61,0,1,0,0-3.21h-1.09v3.21Z" style="fill:#407BFF"></path><path d="M395.4,187a2.84,2.84,0,0,1,4.93-1.76l-.76.71a1.68,1.68,0,0,0-1.3-.61,1.66,1.66,0,1,0,0,3.31,1.68,1.68,0,0,0,1.3-.61l.76.71A2.84,2.84,0,0,1,395.4,187Z" style="fill:#407BFF"></path><path d="M403.82,185.39v1.37h2.39v1h-2.39v1.88h-1.2v-5.17h3.91v1Z" style="fill:#407BFF"></path><path d="M370.13,196.51H372a2,2,0,1,1,0,4h-1.83Zm1.79,3.28a1.26,1.26,0,1,0,0-2.51h-.86v2.51Z" style="fill:#407BFF"></path><path d="M379.55,198c0,.9-.67,1.46-1.75,1.46H377v1.11h-.93v-4h1.75C378.88,196.51,379.55,197.07,379.55,198Zm-.94,0c0-.44-.29-.7-.86-.7H377v1.4h.77C378.32,198.68,378.61,198.42,378.61,198Z" style="fill:#407BFF"></path><path d="M381.17,198.53a2.23,2.23,0,0,1,3.86-1.37l-.6.55a1.3,1.3,0,0,0-1-.47,1.3,1.3,0,0,0,0,2.59,1.28,1.28,0,0,0,1-.48l.6.55a2.23,2.23,0,0,1-3.86-1.37Z" style="fill:#407BFF"></path><path d="M390.09,199.79v.76h-3.54V200l2.22-2.67H386.6v-.77H390v.61l-2.21,2.67Z" style="fill:#407BFF"></path><path d="M391.84,196.51h.94v3.28h2v.76h-3Z" style="fill:#407BFF"></path><path d="M397.42,197.26v1.07h1.87v.75h-1.87v1.47h-.94v-4h3v.75Z" style="fill:#407BFF"></path><path d="M402.19,197.28H400.9v-.77h3.52v.77h-1.3v3.27h-.93Z" style="fill:#407BFF"></path><path d="M372.32,204.85a1.65,1.65,0,0,1,2.86-1l-.45.41a1,1,0,0,0-.75-.35,1,1,0,0,0,0,1.92.94.94,0,0,0,.75-.36l.45.42a1.56,1.56,0,0,1-1.24.53A1.54,1.54,0,0,1,372.32,204.85Z" style="fill:#407BFF"></path><path d="M377.19,203.91v.79h1.38v.56h-1.38v1.09h-.7v-3h2.27v.56Z" style="fill:#407BFF"></path><path d="M380.08,203.35h1.36a1.51,1.51,0,1,1,0,3h-1.36Zm1.33,2.43a.93.93,0,1,0,0-1.86h-.64v1.86Z" style="fill:#407BFF"></path><path d="M385,203.92h-1v-.57h2.61v.57h-1v2.43H385Z" style="fill:#407BFF"></path><path d="M390.24,205.79v.56h-2.32v-3h2.26v.56h-1.57v.65H390v.54h-1.39v.69Z" style="fill:#407BFF"></path><path d="M391.44,204.85a1.64,1.64,0,1,1,1.64,1.55A1.55,1.55,0,0,1,391.44,204.85Zm2.58,0a.94.94,0,1,0-.94,1A.91.91,0,0,0,394,204.85Z" style="fill:#407BFF"></path><path d="M398.69,204.44c0,.67-.5,1.08-1.3,1.08h-.61v.83h-.69v-3h1.3C398.19,203.35,398.69,203.77,398.69,204.44Zm-.7,0c0-.33-.22-.52-.64-.52h-.57v1h.57C397.77,205,398,204.77,398,204.44Z" style="fill:#407BFF"></path><path d="M400,203.35h.69v2.43h1.51v.57H400Z" style="fill:#407BFF"></path><path d="M374.31,208.63h.61v2.12h1.31v.49h-1.92Z" style="fill:#407BFF"></path><path d="M377.31,208.63h1.18a1.31,1.31,0,1,1,0,2.61h-1.18Zm1.15,2.11a.81.81,0,1,0,0-1.62h-.55v1.62Z" style="fill:#407BFF"></path><path d="M381,209.93a1.34,1.34,0,0,1,1.41-1.35,1.37,1.37,0,0,1,1.08.47l-.39.35a.85.85,0,0,0-.66-.3.79.79,0,0,0-.83.83.8.8,0,0,0,.83.84.86.86,0,0,0,.66-.31l.39.36a1.36,1.36,0,0,1-1.08.46A1.34,1.34,0,0,1,381,209.93Z" style="fill:#407BFF"></path><path d="M386.72,210.75v.49h-2.28v-.39l1.43-1.73h-1.4v-.49h2.19V209l-1.42,1.73Z" style="fill:#407BFF"></path><path d="M387.66,209.93a1.43,1.43,0,1,1,1.43,1.35A1.35,1.35,0,0,1,387.66,209.93Zm2.25,0a.82.82,0,1,0-.82.84A.8.8,0,0,0,389.91,209.93Z" style="fill:#407BFF"></path><path d="M392.22,209.12h-.84v-.49h2.28v.49h-.84v2.12h-.6Z" style="fill:#407BFF"></path><path d="M396.74,210.75v.49h-2v-2.61h2v.48h-1.38v.57h1.22v.47h-1.22v.6Z" style="fill:#407BFF"></path><path d="M400.23,209.57c0,.59-.43,1-1.13,1h-.53v.72H398v-2.61h1.13C399.8,208.63,400.23,209,400.23,209.57Zm-.61,0c0-.28-.19-.45-.56-.45h-.49V210h.49C399.43,210,399.62,209.86,399.62,209.57Z" style="fill:#407BFF"></path><path d="M379.52,213.82c0,.44-.33.71-.85.71h-.4v.55h-.45v-2h.85C379.19,213.11,379.52,213.38,379.52,213.82Zm-.46,0c0-.21-.14-.34-.42-.34h-.37v.68h.37C378.92,214.16,379.06,214,379.06,213.82Z" style="fill:#407BFF"></path><path d="M380.86,213.48V214h.91v.37h-.91v.72h-.45v-2h1.48v.37Z" style="fill:#407BFF"></path><path d="M382.62,214.09a1,1,0,0,1,1.06-1,1,1,0,0,1,.81.34l-.29.27a.64.64,0,0,0-.49-.23.63.63,0,0,0,0,1.26.64.64,0,0,0,.49-.23l.29.27a1.08,1.08,0,0,1-1.87-.67Z" style="fill:#407BFF"></path><path d="M385.36,213.11h.89a1,1,0,1,1,0,2h-.89Zm.87,1.59a.61.61,0,1,0,0-1.22h-.42v1.22Z" style="fill:#407BFF"></path><path d="M388.62,213.48H388v-.37h1.71v.37h-.63v1.6h-.45Z" style="fill:#407BFF"></path><path d="M392.1,214.71v.37h-1.72v-.3l1.08-1.3H390.4v-.37h1.65v.29L391,214.71Z" style="fill:#407BFF"></path><path d="M393,213.11h.45v1.6h1v.37H393Z" style="fill:#407BFF"></path><path d="M396.73,214.71v.37H395.2v-2h1.49v.37h-1v.42h.91v.36h-.91v.45Z" style="fill:#407BFF"></path><rect x="370.67" y="169.3" width="33.2" height="1.46" style="fill:#407BFF"></rect><rect x="370.67" y="191.46" width="33.2" height="1.46" style="fill:#407BFF"></rect><rect x="359.71" y="132.08" width="55.12" height="3.32" style="fill:#407BFF"></rect><rect x="359.71" y="221.08" width="55.12" height="3.32" style="fill:#407BFF"></rect></g><g id="freepik--table-2--inject-91"><rect x="416.78" y="315.16" width="4.75" height="102.41" style="fill:#407BFF"></rect><rect x="374.78" y="315.16" width="4.75" height="102.41" style="fill:#407BFF"></rect><rect x="403.78" y="315.16" width="4.75" height="102.41" style="fill:#407BFF"></rect><rect x="361.78" y="315.16" width="4.75" height="102.41" style="fill:#407BFF"></rect><rect x="403.78" y="315.16" width="4.75" height="102.41" style="fill:#fff;opacity:0.6000000000000001"></rect><rect x="361.78" y="315.16" width="4.75" height="102.41" style="fill:#fff;opacity:0.6000000000000001"></rect><rect x="416.78" y="315.16" width="4.75" height="102.41" style="fill:#fff;opacity:0.5"></rect><rect x="374.78" y="315.16" width="4.75" height="102.41" style="fill:#fff;opacity:0.5"></rect><rect x="364.15" y="362.65" width="55" height="3.71" style="fill:#407BFF"></rect><rect x="364.15" y="362.65" width="55" height="3.71" style="fill:#fff;opacity:0.6000000000000001"></rect><rect x="357.43" y="307.56" width="68.45" height="11.63" style="fill:#407BFF"></rect><rect x="357.43" y="307.56" width="68.45" height="11.63" style="fill:#fff;opacity:0.7000000000000001"></rect><rect x="361.78" y="295.86" width="49.9" height="11.7" style="fill:#263238"></rect><rect x="361.78" y="295.86" width="29.88" height="11.7" style="fill:#fff;opacity:0.1"></rect><rect x="406.16" y="286.76" width="13" height="20.8" style="fill:#407BFF"></rect></g><g id="freepik--character-1--inject-91"><polygon points="123.85 259.32 128.16 259.32 140.16 329.75 135.85 329.75 123.85 259.32" style="fill:#263238"></polygon><polygon points="139.85 259.32 144.16 259.32 156.16 329.75 151.85 329.75 139.85 259.32" style="fill:#263238"></polygon><polygon points="155.85 259.32 160.16 259.32 172.16 329.75 167.85 329.75 155.85 259.32" style="fill:#263238"></polygon><polygon points="123.85 259.32 128.16 259.32 140.16 329.75 135.85 329.75 123.85 259.32" style="fill:#fff;opacity:0.4;isolation:isolate"></polygon><polygon points="139.85 259.32 144.16 259.32 156.16 329.75 151.85 329.75 139.85 259.32" style="fill:#fff;opacity:0.4;isolation:isolate"></polygon><polygon points="155.85 259.32 160.16 259.32 172.16 329.75 167.85 329.75 155.85 259.32" style="fill:#fff;opacity:0.4;isolation:isolate"></polygon><polygon points="160.69 331.57 161.04 347.14 162.69 417.57 168.09 417.57 169.72 347.14 170.09 331.57 160.69 331.57" style="fill:#263238"></polygon><polygon points="160.69 331.57 161.04 347.14 162.69 417.57 168.09 417.57 169.72 347.14 170.09 331.57 160.69 331.57" style="fill:#fff;opacity:0.4;isolation:isolate"></polygon><polygon points="160.69 331.57 161.04 347.57 169.72 347.57 170.09 331.57 160.69 331.57" style="opacity:0.2;isolation:isolate"></polygon><polygon points="131.31 417.32 136.3 332.67 144.47 332.67 137.48 417.32 131.31 417.32" style="fill:#263238"></polygon><polygon points="137.49 417.32 131.32 417.32 135.85 340.27 136.3 332.57 144.47 332.57 143.84 340.27 137.49 417.32" style="fill:#fff;opacity:0.4;isolation:isolate"></polygon><polygon points="144.47 332.57 143.84 340.57 135.85 340.57 136.3 332.57 144.47 332.57" style="opacity:0.2;isolation:isolate"></polygon><polygon points="193.3 417.32 186.3 332.67 194.47 332.67 199.47 417.32 193.3 417.32" style="fill:#263238"></polygon><polygon points="193.28 417.32 186.93 340.27 186.3 332.57 194.47 332.57 194.92 340.27 199.46 417.32 193.28 417.32" style="fill:#fff;opacity:0.4;isolation:isolate"></polygon><polygon points="186.3 332.57 186.93 340.57 194.92 340.57 194.47 332.57 186.3 332.57" style="opacity:0.2;isolation:isolate"></polygon><path d="M131.93,323.9h66.92a0,0,0,0,1,0,0v6.69a5,5,0,0,1-5,5H136.93a5,5,0,0,1-5-5V323.9A0,0,0,0,1,131.93,323.9Z" transform="translate(330.77 659.49) rotate(180)" style="fill:#407BFF"></path><path d="M131.3,267.45c6.94-4.2,16.57-4.2,25.78,0,4.65,2,10.15,2.62,12.59-.32h0c4.15-4.32-3.13-17.13-17.11-21.19-10-2.86-19.91-2.86-28.36,0-11.79,4.06-12.15,16.87-5.67,21.19h0C122.56,270.07,127.74,269.49,131.3,267.45Z" style="fill:#407BFF"></path><path d="M131.93,323.9h66.92a0,0,0,0,1,0,0v6.69a5,5,0,0,1-5,5H136.93a5,5,0,0,1-5-5V323.9A0,0,0,0,1,131.93,323.9Z" transform="translate(330.77 659.49) rotate(180)" style="opacity:0.30000000000000004"></path><path d="M131.3,267.45c6.94-4.2,16.57-4.2,25.78,0,4.65,2,10.15,2.62,12.59-.32h0c4.15-4.32-3.13-17.13-17.11-21.19-10-2.86-19.91-2.86-28.36,0-11.79,4.06-12.15,16.87-5.67,21.19h0C122.56,270.07,127.74,269.49,131.3,267.45Z" style="opacity:0.30000000000000004"></path><rect x="128.72" y="329.75" width="73.33" height="5.84" rx="2.01" transform="translate(330.77 665.34) rotate(-180)" style="fill:#263238"></rect><rect x="128.72" y="329.75" width="73.33" height="5.84" rx="2.01" transform="translate(330.77 665.34) rotate(-180)" style="fill:#fff;opacity:0.6000000000000001;isolation:isolate"></rect><g id="freepik--group--inject-91"><path d="M198,236.19s-1.88,24.95-1.29,27.57,29.29,0,29.29,0a2.31,2.31,0,0,0,2.14,1.17h7.79l1.39-8.45s-7.22-.22-9.18,0-2.27,2.84-2.27,2.84-19.67-1.44-21.05-1.84S206,238.89,206,238.89Z" style="fill:#ebb376"></path><path d="M194.17,250h14.22s1.07-10.32,1.33-15.79-2.14-9.09-5.9-8.16C195.22,228.17,194.17,250,194.17,250Z" style="fill:#407BFF"></path><path d="M197.23,250h5.47c3-5.79-1.36-13.09-1.36-13.09C198.11,239.86,196.79,246.14,197.23,250Z" style="opacity:0.2;isolation:isolate"></path><polygon points="258.08 408.06 265.83 405.93 264.45 387.01 256.7 389.15 258.08 408.06" style="fill:#ebb376"></polygon><path d="M266.3,404.9l-9,.62a.58.58,0,0,0-.56.59h0l.06,7.15a1.41,1.41,0,0,0,1.5,1.32c3.13-.27,4.62-.55,8.57-.86a74,74,0,0,0,10.53-1.05c3.28-.76,2.44-4,1-3.95-3.46.06-8.3-1.85-10.68-3.46A2.24,2.24,0,0,0,266.3,404.9Z" style="fill:#263238"></path><path d="M269.24,406.07a10.46,10.46,0,0,1-2.16-.14.18.18,0,0,1-.15-.13.24.24,0,0,1,.06-.2c.24-.2,2.41-1.9,3.42-1.59a.74.74,0,0,1,.47.5,1,1,0,0,1-.16,1.06A2.2,2.2,0,0,1,269.24,406.07Zm1.06-1.67c-.54-.17-1.82.6-2.71,1.25,1.45.19,2.5.07,2.85-.33a.68.68,0,0,0,.09-.67.34.34,0,0,0-.23-.25Z" style="fill:#407BFF"></path><path d="M267.12,405.93l-.07,0a.24.24,0,0,1-.12-.14c0-.07-.35-2.39.4-3.23a1,1,0,0,1,.78-.32.72.72,0,0,1,.72.52c.24.86-.84,2.62-1.6,3.15Zm.88-3.27a.55.55,0,0,0-.38.2c-.46.5-.42,1.82-.35,2.58a4,4,0,0,0,1.2-2.53c0-.11-.1-.23-.37-.25Z" style="fill:#407BFF"></path><polygon points="256.7 389.15 264.45 387.02 265.24 397.84 257.46 399.57 256.7 389.15" style="opacity:0.2;isolation:isolate"></polygon><polygon points="247.94 407.78 240.63 411.12 238.76 403.26 236.26 392.68 243.56 389.33 246.07 399.9 247.94 407.78" style="fill:#ebb376"></polygon><polygon points="246.07 399.9 238.76 403.26 236.26 392.68 243.56 389.33 246.07 399.9" style="opacity:0.2;isolation:isolate"></polygon><path d="M248.25,406.69l-8.78,2.05a.58.58,0,0,0-.46.67h0l1.2,7.05a1.41,1.41,0,0,0,1.69,1.06c3-.76,4.47-1.28,8.32-2.21,2.37-.56,7.11-1.44,10.23-2.72s1.78-4.32.34-4.06c-3.4.62-8.48-.49-11.09-1.71A2.27,2.27,0,0,0,248.25,406.69Z" style="fill:#263238"></path><path d="M251.33,407.38a10.37,10.37,0,0,1-2.15.2.16.16,0,0,1-.17-.1.2.2,0,0,1,0-.21c.2-.23,2.07-2.26,3.12-2.11a.73.73,0,0,1,.54.42,1,1,0,0,1,0,1.07A2.11,2.11,0,0,1,251.33,407.38Zm.78-1.82c-.56-.08-1.7.88-2.48,1.67,1.46-.05,2.48-.33,2.77-.78a.71.71,0,0,0,0-.68.36.36,0,0,0-.27-.21Z" style="fill:#407BFF"></path><path d="M249.22,407.58a.11.11,0,0,1-.07,0,.28.28,0,0,1-.14-.12c0-.07-.73-2.31-.12-3.25a1,1,0,0,1,.72-.44.72.72,0,0,1,.79.4c.37.81-.41,2.72-1.08,3.36A.12.12,0,0,1,249.22,407.58Zm.35-3.37a.55.55,0,0,0-.35.26,4.08,4.08,0,0,0,.07,2.6,4,4,0,0,0,.78-2.69c0-.1-.14-.21-.41-.18Z" style="fill:#407BFF"></path><path d="M193.67,300.35l-2.36-26.14-43.65,1s-5.17,36.42-1.41,43.11c6.7,11.95,50.71,5.16,61,6.18,4.2,2.24,26.69,76.77,26.69,76.77l12.59-5.08S233,333.32,229.9,321.47C225.61,305,208.13,305.28,193.67,300.35Z" style="fill:#263238"></path><path d="M266,394.93l-11.11,1s-13.62-69.35-14.67-69.65c-1.9-.54-7.42-1.16-10.38-1.93-20.61-5.36-71.37-15.22-71.37-15.22l18.72-18s84.85,10.18,86.74,30.09C264.84,330.8,266,394.93,266,394.93Z" style="fill:#263238"></path><path d="M237.23,326.36c-1.9-.54-4.42-1.21-7.38-2,.82.43-1.57-10.37-3.95-13.16-4.71-5.57-23.67-8.57-30.47-9.66-5.69-.91-24.77-2.6-24.77-2.6s33.68-2.91,59.06,4.06C242.27,306.47,240,318.72,237.23,326.36Z" style="opacity:0.2;isolation:isolate"></path><path d="M146.22,279.55H192.3c.53-3,1.13-6.25,1.82-9.64.57-2.76,1.19-5.63,1.88-8.58A207.43,207.43,0,0,1,207.1,227a93.82,93.82,0,0,0-12.88-4.36c-6.41-1.74-9.92-2.11-16.49-3.1-4.54-.48-16.92,3.05-16.92,3.05s-2.25,3.27-5.14,11.53h0a161.52,161.52,0,0,0-5.47,20.31C148.74,261.38,147.36,269.7,146.22,279.55Z" style="fill:#407BFF"></path><path d="M185.6,202.07c-1.75,6.29-5.88,17.35-11.8,19.17,0,0,4.36,7.13,10.89,7.73,4.15.38,6.45-4.31,6.45-4.31-4.24-.79-2.62-3.89.72-7.78Z" style="fill:#ebb376"></path><path d="M188.15,208.11l3.7,8.76a21.52,21.52,0,0,0-2.13,2.89c-4.16.31-7.15-6.29-6.13-9C184,209.68,187.4,209,188.15,208.11Z" style="opacity:0.2;isolation:isolate"></path><path d="M207.31,187.59s2.95,11.87-3,17.1-8-17.2-8-17.2Z" style="fill:#263238"></path><path d="M186.62,216a11,11,0,0,0,12.95,3.07,12.22,12.22,0,0,0,6.42-6.3,11.67,11.67,0,0,0,.47-1.21c2.47-7.65,2.28-20.62-6-24.72a11.91,11.91,0,0,0-17.28,10.6C183.07,206.11,182.57,211.22,186.62,216Z" style="fill:#ebb376"></path><path d="M196.2,200.86c-.1.69.27,1.3.74,1.34s.88-.52.94-1.22-.28-1.31-.74-1.34S196.26,200.14,196.2,200.86Z" style="fill:#263238"></path><path d="M204.18,201.47c-.1.7.28,1.31.74,1.34s.88-.51.94-1.22-.28-1.3-.74-1.34S204.24,200.8,204.18,201.47Z" style="fill:#263238"></path><path d="M201.62,201.62a24.7,24.7,0,0,0,2.91,6.3,4.09,4.09,0,0,1-3.44.37Z" style="fill:#d58745"></path><path d="M194.89,197.94a.45.45,0,0,0,.43-.08,3.34,3.34,0,0,1,2.88-.84.41.41,0,0,0,.22-.8h0a4.13,4.13,0,0,0-3.65,1,.41.41,0,0,0-.05.58h0A.48.48,0,0,0,194.89,197.94Z" style="fill:#263238"></path><path d="M207.37,198.08a.44.44,0,0,0,.23-.1.41.41,0,0,0-.08-.58h0a4.13,4.13,0,0,0-3.73-.68.41.41,0,0,0-.24.54h0a.42.42,0,0,0,.53.24h0a3.36,3.36,0,0,1,3,.58A.39.39,0,0,0,207.37,198.08Z" style="fill:#263238"></path><path d="M190.43,187.1l.35,3.84a2.86,2.86,0,0,0-1.54,3.55c1.14,3.26-.83,8.21-3.36,10.13,0,0,0-1.4-1.22-1.1s-1.08,7.57,1.12,11.1c0,0-3.38-3.23-5.12-10.92-1.61-7.11-1.67-13-.14-15.69Z" style="fill:#263238"></path><path d="M178.9,204.24a8.3,8.3,0,0,0,4.41,4.53c2.67,1.13,4.37-1.17,3.95-3.89-.4-2.41-2.26-6-5.1-5.93S177.94,201.73,178.9,204.24Z" style="fill:#ebb376"></path><path d="M190.78,190.94s11.2,4.27,15.71-.19,4.18-12.09.74-12.72-4.24,3-6.59,3.37-4.28-3.47-7.22-2.67-4.75,4.33-6.26,3.49-11.29,1.89-7.63,9.39Z" style="fill:#263238"></path><path d="M200,212.19h0a5.35,5.35,0,0,1-4.55-4.1.37.37,0,0,1,.72-.2,4.52,4.52,0,0,0,3.87,3.55.37.37,0,0,1,.35.39A.37.37,0,0,1,200,212.19Z" style="fill:#263238"></path><polygon points="177.37 218.92 184.42 227.82 188.79 221.48 191.86 224.37 189.43 233.48 184.61 229.83 179.41 234.41 172.04 222.55 177.37 218.92" style="fill:#407BFF"></polygon><polygon points="177.37 218.92 184.42 227.82 188.79 221.48 191.86 224.37 189.43 233.48 184.61 229.83 179.41 234.41 172.04 222.55 177.37 218.92" style="fill:#fff;opacity:0.30000000000000004"></polygon><polygon points="192.3 279.55 192.1 282.93 146.69 282.93 147.09 279.55 192.3 279.55"></polygon><rect x="175.72" y="278.98" width="6" height="4.29" rx="0.86" transform="translate(357.43 562.24) rotate(180)" style="fill:#fff"></rect><path d="M150.2,254.4a61,61,0,0,0,4,11.09l40,4.42c.57-2.76,1.19-5.63,1.88-8.58-8.18-.33-31.16-6.32-31.16-6.32l2.47-3.06s-.7-17.91-.68-18.2c0,0-5.95-1.13-11,.33h0A161.52,161.52,0,0,0,150.2,254.4Z" style="opacity:0.2;isolation:isolate"></path><path d="M155,236.19s-1.89,24.95-1.29,27.57,29.29,0,29.29,0a2.29,2.29,0,0,0,2.14,1.17h7.78l1.4-8.45s-7.23-.22-9.18,0-2.27,2.84-2.27,2.84-19.67-1.44-21.05-1.84S163,238.89,163,238.89Z" style="fill:#ebb376"></path><path d="M160.81,222.55C152.22,225,151.17,250,151.17,250h14.22s1.07-11.82,1.33-18.09S164.58,221.48,160.81,222.55Z" style="fill:#407BFF"></path></g></g><g id="freepik--table-1--inject-91"><rect x="237.06" y="269.16" width="6.1" height="148.41" transform="translate(480.22 686.73) rotate(180)" style="fill:#407BFF"></rect><rect x="176.06" y="269.16" width="6.1" height="148.41" transform="translate(358.22 686.73) rotate(180)" style="fill:#407BFF"></rect><rect x="298.07" y="269.16" width="6.1" height="148.41" transform="translate(602.23 686.73) rotate(180)" style="fill:#407BFF"></rect><rect x="237.06" y="269.16" width="6.1" height="148.41" transform="translate(480.22 686.73) rotate(180)" style="fill:#fff;opacity:0.6000000000000001"></rect><rect x="176.06" y="269.16" width="6.1" height="148.41" transform="translate(358.22 686.73) rotate(180)" style="fill:#fff;opacity:0.6000000000000001"></rect><rect x="298.07" y="269.16" width="6.1" height="148.41" transform="translate(602.23 686.73) rotate(180)" style="fill:#fff;opacity:0.6000000000000001"></rect><rect x="174.95" y="266.54" width="129.76" height="8.17" transform="translate(479.66 541.25) rotate(180)" style="fill:#407BFF"></rect><rect x="174.95" y="266.54" width="129.76" height="8.17" transform="translate(479.66 541.25) rotate(180)" style="fill:#fff;opacity:0.6000000000000001"></rect><path d="M172.14,268.15H307.52a1.61,1.61,0,0,0,1.61-1.61h0a1.61,1.61,0,0,0-1.61-1.61H172.14a1.62,1.62,0,0,0-1.62,1.61h0A1.62,1.62,0,0,0,172.14,268.15Z" style="fill:#407BFF"></path><path d="M172.14,268.15H307.52a1.61,1.61,0,0,0,1.61-1.61h0a1.61,1.61,0,0,0-1.61-1.61H172.14a1.62,1.62,0,0,0-1.62,1.61h0A1.62,1.62,0,0,0,172.14,268.15Z" style="fill:#fff;opacity:0.7000000000000001"></path></g><g id="freepik--Device--inject-91"><rect x="251.34" y="200.92" width="2.27" height="4.56" transform="translate(504.95 406.4) rotate(180)" style="fill:#263238"></rect><path d="M233.52,213V210.8l-2.61-3.11h-.79a10,10,0,0,1-.44,3.41V213Z" style="fill:#263238"></path><path d="M228.79,212.24h5.49a0,0,0,0,1,0,0V222a.37.37,0,0,1-.37.37h-4.75a.37.37,0,0,1-.37-.37v-9.77A0,0,0,0,1,228.79,212.24Z" transform="translate(463.06 434.61) rotate(180)" style="fill:#263238"></path><path d="M228.79,212.24h5.49a0,0,0,0,1,0,0V222a.37.37,0,0,1-.37.37h-4.75a.37.37,0,0,1-.37-.37v-9.77A0,0,0,0,1,228.79,212.24Z" transform="translate(463.06 434.61) rotate(180)" style="fill:#fff;opacity:0.1"></path><path d="M228.19,219.46H235a0,0,0,0,1,0,0v6.11a.34.34,0,0,1-.34.34h-6.09a.34.34,0,0,1-.34-.34v-6.11A0,0,0,0,1,228.19,219.46Z" transform="translate(463.15 445.36) rotate(180)" style="fill:#263238"></path><path d="M234.78,229.16h1.64c.7,0,1.26.87,1.26,2s-.56,1.94-1.26,1.94h-1.64c-.7,0-1.26-.87-1.26-1.94S234.08,229.16,234.78,229.16Z" style="fill:#263238"></path><path d="M233.52,231.11c0,1.07.56,1.94,1.26,1.94s1.25-.87,1.25-1.94-.56-2-1.25-2S233.52,230,233.52,231.11Z" style="fill:#fff;opacity:0.1"></path><path d="M227.17,224.58h8.7a0,0,0,0,1,0,0v12.66a1.05,1.05,0,0,1-1.05,1.05h-6.59a1.05,1.05,0,0,1-1.05-1.05V224.58A0,0,0,0,1,227.17,224.58Z" transform="translate(463.05 462.88) rotate(180)" style="fill:#263238"></path><path d="M227.17,224.58h8.7a0,0,0,0,1,0,0v12.66a1.05,1.05,0,0,1-1.05,1.05h-6.59a1.05,1.05,0,0,1-1.05-1.05V224.58A0,0,0,0,1,227.17,224.58Z" transform="translate(463.05 462.88) rotate(180)" style="fill:#fff;opacity:0.2"></path><path d="M226.78,229.16h1.64c.7,0,1.26.87,1.26,2s-.56,1.94-1.26,1.94h-1.64c-.7,0-1.26-.87-1.26-1.94S226.08,229.16,226.78,229.16Z" style="fill:#263238"></path><path d="M225.52,231.11c0,1.07.56,1.94,1.26,1.94s1.25-.87,1.25-1.94-.56-2-1.25-2S225.52,230,225.52,231.11Z" style="fill:#fff;opacity:0.1"></path><rect x="214.13" y="184.69" width="1.39" height="4.75" transform="translate(429.65 374.13) rotate(180)" style="fill:#263238"></rect><rect x="214.13" y="184.69" width="1.39" height="4.75" transform="translate(429.65 374.13) rotate(180)" style="fill:#fff;opacity:0.2"></rect><rect x="189.33" y="187.1" width="3" height="79.91" transform="translate(381.65 454.1) rotate(180)" style="fill:#263238"></rect><rect x="189.33" y="187.1" width="3" height="79.91" transform="translate(381.65 454.1) rotate(180)" style="fill:#fff;opacity:0.6000000000000001"></rect><rect x="189.06" y="187.86" width="3.56" height="8.52" transform="translate(381.68 384.23) rotate(180)" style="fill:#263238"></rect><rect x="189.06" y="187.86" width="3.56" height="8.52" transform="translate(381.68 384.23) rotate(180)" style="fill:#fff;opacity:0.2"></rect><rect x="213.31" y="187.1" width="3" height="79.91" transform="translate(429.61 454.1) rotate(180)" style="fill:#263238"></rect><rect x="213.31" y="187.1" width="3" height="79.91" transform="translate(429.61 454.1) rotate(180)" style="fill:#fff;opacity:0.6000000000000001"></rect><rect x="213.05" y="187.86" width="3.56" height="8.52" transform="translate(429.65 384.23) rotate(180)" style="fill:#263238"></rect><rect x="213.05" y="187.86" width="3.56" height="8.52" transform="translate(429.65 384.23) rotate(180)" style="fill:#fff;opacity:0.1"></rect><path d="M192.48,189.44h22.15a0,0,0,0,1,0,0v5.93a0,0,0,0,1,0,0H192.48a.52.52,0,0,1-.52-.52V190A.52.52,0,0,1,192.48,189.44Z" transform="translate(406.6 384.81) rotate(180)" style="fill:#263238"></path><path d="M192.48,189.44h22.15a0,0,0,0,1,0,0v5.93a0,0,0,0,1,0,0H192.48a.52.52,0,0,1-.52-.52V190A.52.52,0,0,1,192.48,189.44Z" transform="translate(406.6 384.81) rotate(180)" style="fill:#fff;opacity:0.2"></path><rect x="189.06" y="217.86" width="3.56" height="8.52" transform="translate(381.68 444.24) rotate(180)" style="fill:#263238"></rect><rect x="189.06" y="217.86" width="3.56" height="8.52" transform="translate(381.68 444.24) rotate(180)" style="fill:#fff;opacity:0.2"></rect><rect x="213.05" y="217.86" width="3.56" height="8.52" transform="translate(429.65 444.24) rotate(180)" style="fill:#263238"></rect><rect x="213.05" y="217.86" width="3.56" height="8.52" transform="translate(429.65 444.24) rotate(180)" style="fill:#fff;opacity:0.1"></rect><path d="M214.81,218.92H191.3v5.31h.57s4.85-3.83,13.12-3.83,8.32,3.83,8.32,3.83h1.5Z" style="fill:#263238"></path><path d="M214.81,218.92H191.3v5.31h.57s4.85-3.83,13.12-3.83,8.32,3.83,8.32,3.83h1.5Z" style="fill:#fff;opacity:0.2"></path><path d="M215.28,209.52h3.24a.77.77,0,0,0,.76-.77h0a.76.76,0,0,0-.76-.76h-3.24a.76.76,0,0,0-.76.76h0A.77.77,0,0,0,215.28,209.52Z" style="fill:#263238"></path><path d="M215.28,209.52h3.24a.77.77,0,0,0,.76-.77h0a.76.76,0,0,0-.76-.76h-3.24a.76.76,0,0,0-.76.76h0A.77.77,0,0,0,215.28,209.52Z" style="fill:#fff;opacity:0.7000000000000001"></path><rect x="188.39" y="226.38" width="4.89" height="3.91" rx="0.37" transform="translate(381.67 456.66) rotate(180)" style="fill:#263238"></rect><rect x="212.38" y="226.38" width="4.89" height="3.91" rx="0.37" transform="translate(429.65 456.66) rotate(180)" style="fill:#263238"></rect><rect x="209.37" y="254.58" width="27.69" height="3.16" transform="translate(446.43 512.33) rotate(180)" style="fill:#263238"></rect><path d="M208.44,256.41h30.2a0,0,0,0,1,0,0v10a.63.63,0,0,1-.63.63H209.07a.63.63,0,0,1-.63-.63v-10A0,0,0,0,1,208.44,256.41Z" transform="translate(447.07 523.41) rotate(180)" style="fill:#263238"></path><path d="M208.43,257v10h30.2V257a.63.63,0,0,0-.63-.63H209.07A.64.64,0,0,0,208.43,257Z" style="fill:#fff;opacity:0.4"></path><path d="M232.44,257v10h6.19V257a.63.63,0,0,0-.63-.63h-4.93A.63.63,0,0,0,232.44,257Z" style="fill:#fff;opacity:0.2"></path><path d="M209.68,242.81h6.23a0,0,0,0,1,0,0v3.06a.57.57,0,0,1-.57.57h-5.08a.57.57,0,0,1-.57-.57v-3.06A0,0,0,0,1,209.68,242.81Z" transform="translate(425.58 489.26) rotate(180)" style="fill:#263238"></path><path d="M217.09,246.87v1.91a.72.72,0,0,0,.72.72h23.65A.56.56,0,0,0,242,249l8.21-44.22h6l-9.4,50.68a.61.61,0,0,1-.6.5H209.05a.61.61,0,0,1-.61-.61v-8.52a.92.92,0,0,1,.92-.92h6.8A.93.93,0,0,1,217.09,246.87Z" style="fill:#263238"></path><path d="M217.09,246.87v1.91a.72.72,0,0,0,.72.72h23.65A.56.56,0,0,0,242,249l8.21-44.22h6l-9.4,50.68a.61.61,0,0,1-.6.5H209.05a.61.61,0,0,1-.61-.61v-8.52a.92.92,0,0,1,.92-.92h6.8A.93.93,0,0,1,217.09,246.87Z" style="fill:#fff;opacity:0.5"></path><path d="M243.16,256h3a.61.61,0,0,0,.61-.5l9.4-50.68h-3l-9.4,50.68A.61.61,0,0,1,243.16,256Z" style="fill:#fff;opacity:0.2"></path><path d="M213.16,246a.93.93,0,0,1,.93.92v1.91a.72.72,0,0,0,.72.72h3a.72.72,0,0,1-.72-.72v-1.91a.93.93,0,0,0-.93-.92Z" style="fill:#fff;opacity:0.2"></path><path d="M209.12,240h6.13a.54.54,0,0,0,.54-.54v-2.3a1,1,0,0,1,1-1h20.88a1,1,0,0,1,1,1v10.89a1,1,0,0,1-1,1H216.77a1,1,0,0,1-1-1v-1.9a.54.54,0,0,0-.54-.54h-6.13a.71.71,0,0,1-.7-.71v-4.19A.71.71,0,0,1,209.12,240Z" style="fill:#263238"></path><path d="M209.12,240h6.13a.54.54,0,0,0,.54-.54v-2.3a1,1,0,0,1,1-1h20.88a1,1,0,0,1,1,1v10.89a1,1,0,0,1-1,1H216.77a1,1,0,0,1-1-1v-1.9a.54.54,0,0,0-.54-.54h-6.13a.71.71,0,0,1-.7-.71v-4.19A.71.71,0,0,1,209.12,240Z" style="fill:#fff;opacity:0.4"></path><path d="M231.65,249h6a1,1,0,0,0,1-1V237.17a1,1,0,0,0-1-1h-6a1,1,0,0,1,1,1v10.89A1,1,0,0,1,231.65,249Z" style="fill:#fff;opacity:0.2"></path><path d="M248.82,213.94h8.79a5,5,0,0,0,5-5h0a5,5,0,0,0-5-5h-8.79a5,5,0,0,0-5,5h0A5,5,0,0,0,248.82,213.94Z" style="fill:#263238"></path><path d="M248.82,213.94h8.79a5,5,0,0,0,5-5h0a5,5,0,0,0-5-5h-8.79a5,5,0,0,0-5,5h0A5,5,0,0,0,248.82,213.94Z" style="fill:#fff;opacity:0.1"></path><path d="M244.83,205.72h2.75c1.15,0,2.09,1.46,2.09,3.25s-.94,3.25-2.09,3.25h-2.75c-1.15,0-2.09-1.45-2.09-3.25S243.68,205.72,244.83,205.72Z" style="fill:#263238"></path><path d="M242.74,209c0,1.8.94,3.25,2.09,3.25s2.09-1.45,2.09-3.25-.94-3.25-2.09-3.25S242.74,207.18,242.74,209Z" style="fill:#fff;opacity:0.1"></path><path d="M256.48,202.08h18.17a3.53,3.53,0,0,1,3.52,3.52v4.17a3.53,3.53,0,0,1-3.52,3.52H256.48a3.52,3.52,0,0,1-3.52-3.52V205.6A3.52,3.52,0,0,1,256.48,202.08Z" style="fill:#263238"></path><path d="M256.48,202.08h18.17a3.53,3.53,0,0,1,3.52,3.52v4.17a3.53,3.53,0,0,1-3.52,3.52H256.48a3.52,3.52,0,0,1-3.52-3.52V205.6A3.52,3.52,0,0,1,256.48,202.08Z" style="fill:#fff;opacity:0.4"></path><rect x="260.14" y="202.08" width="18.03" height="11.21" rx="3.52" transform="translate(538.3 415.37) rotate(180)" style="fill:#fff;opacity:0.2"></rect><path d="M276.84,204.66h-2.56c-1.08,0-1.95,1.35-1.95,3s.87,3,1.95,3h2.56c1.08,0,2-1.36,2-3S277.92,204.66,276.84,204.66Z" style="fill:#263238"></path><path d="M278.79,207.69c0,1.67-.87,3-2,3s-1.94-1.36-1.94-3,.87-3,1.94-3S278.79,206,278.79,207.69Z" style="fill:#fff;opacity:0.1"></path><path d="M280.56,204.08h-3.05c-1.29,0-2.33,1.61-2.33,3.61s1,3.61,2.33,3.61h3.05c1.28,0,2.32-1.62,2.32-3.61S281.84,204.08,280.56,204.08Z" style="fill:#263238"></path><path d="M282.88,207.69c0,2-1,3.61-2.32,3.61s-2.32-1.62-2.32-3.61,1-3.61,2.32-3.61S282.88,205.69,282.88,207.69Z" style="fill:#fff;opacity:0.1"></path><path d="M266.84,204.66h-2.56c-1.08,0-1.95,1.35-1.95,3s.87,3,1.95,3h2.56c1.08,0,2-1.36,2-3S267.92,204.66,266.84,204.66Z" style="fill:#263238"></path><path d="M268.79,207.69c0,1.67-.87,3-2,3s-1.94-1.36-1.94-3,.87-3,1.94-3S268.79,206,268.79,207.69Z" style="fill:#fff;opacity:0.1"></path><path d="M270.56,204.08h-3.05c-1.29,0-2.33,1.61-2.33,3.61s1,3.61,2.33,3.61h3.05c1.28,0,2.32-1.62,2.32-3.61S271.84,204.08,270.56,204.08Z" style="fill:#263238"></path><path d="M272.88,207.69c0,2-1,3.61-2.32,3.61s-2.32-1.62-2.32-3.61,1-3.61,2.32-3.61S272.88,205.69,272.88,207.69Z" style="fill:#fff;opacity:0.1"></path></g><g id="freepik--character-2--inject-91"><path d="M338.09,317.33a10.94,10.94,0,0,1-9.22,11.05c-11.83,1.89-30.63,5.12-30.94,6.68-.21,1.05.06,6.83.58,14.72C299.88,371,303,407.29,303,407.29l-7.41-.24s-13.12-38.62-17.35-62.19c-1.27-7-1.75-12.68-.87-15.62,2.88-9.67,43.07-27.86,60.22-36.16Z" style="fill:#407BFF"></path><path d="M338.09,317.33a10.94,10.94,0,0,1-9.22,11.05c-11.83,1.89-30.63,5.12-30.94,6.68-.21,1.05.06,6.83.58,14.72a173.08,173.08,0,0,1-20.3-4.92c-1.27-7-1.75-12.68-.87-15.62,2.88-9.67,43.07-27.86,60.22-36.16Z" style="opacity:0.1;isolation:isolate"></path><path d="M304.5,406.33c0-.73-9-.15-9-.15s-5.54,5.63-10.92,6.89-2.37,4.5,3.64,4.5h14.87C307.34,417.57,304.67,413.93,304.5,406.33Z" style="fill:#263238"></path><path d="M290,408.26a.84.84,0,0,1-.22-1,1,1,0,0,1,.48-.6,3.68,3.68,0,0,1,2-.23c-.73-.39-1.37-.86-1.4-1.33,0-.31.18-.57.59-.76a1.39,1.39,0,0,1,1.16,0c1.23.51,2,2.61,2,2.7a.19.19,0,0,1,0,.18l0,0h0l-.08.06a11.37,11.37,0,0,1-3.73,1.14A1.18,1.18,0,0,1,290,408.26Zm.5-1.15a.49.49,0,0,0-.26.31c-.09.35,0,.45.06.48.42.35,2.07-.15,3.4-.71C292.64,407,291.09,406.73,290.45,407.11Zm1.17-2.3c-.12.06-.32.17-.32.3,0,.4,1.31,1.1,2.65,1.61a3.9,3.9,0,0,0-1.55-1.93.94.94,0,0,0-.36-.08A.92.92,0,0,0,291.62,404.81Z" style="fill:#407BFF"></path><path d="M304.17,284.09s-56,38.17-56.83,51.56,35.06,71.81,35.06,71.81l7.28-1.41s-20.87-65.37-21-69.3S318.86,324.66,324.4,319,304.17,284.09,304.17,284.09Z" style="fill:#407BFF"></path><path d="M247.65,230.31l-2.82-8.26s1.73-4.72,1.37-6.33-3.92-9.91-3.92-9.91-7.06,6.18-6.68,8.64,3.3,9,4.51,9.09l1.51,11Z" style="fill:#e4897b"></path><path d="M273.32,204.15a.26.26,0,0,1-.18-.07,4.07,4.07,0,0,0-3.47-.89.26.26,0,0,1-.3-.2.25.25,0,0,1,.19-.29,4.55,4.55,0,0,1,3.94,1,.25.25,0,0,1,0,.35A.26.26,0,0,1,273.32,204.15Z" style="fill:#263238"></path><path d="M271.67,208.28a18.11,18.11,0,0,1-2.14,3.65,2.29,2.29,0,0,0,2.27.75Z" style="fill:#de5753"></path><path d="M270,206.11c0,.69.44,1.22.9,1.19s.79-.6.75-1.28-.44-1.22-.9-1.19S270,205.43,270,206.11Z" style="fill:#263238"></path><path d="M271,204.85l-1.52-.5S270.28,205.56,271,204.85Z" style="fill:#263238"></path><path d="M290.4,218.87a2.61,2.61,0,0,1-.24.23,12.54,12.54,0,0,1-4,2.71c-4.43,1.68-7.64,1.49-10-.3h0c-3.28-2.71-4.75-8.1-5.26-14.79a24.74,24.74,0,0,1,.38-7.94.48.48,0,0,1,0-.12c0-.09.05-.21.08-.3a9.1,9.1,0,0,1,5.89-6.44,18.15,18.15,0,0,1,3.85-1C294,189,299.29,210.12,290.4,218.87Z" style="fill:#e4897b"></path><path d="M290.16,219.1a12.25,12.25,0,0,1-4.06,2.53c-4.42,1.68-7.65,1.34-10-.48a13,13,0,0,0,8.11-1.8C286,218.24,288.08,218.4,290.16,219.1Z" style="opacity:0.2;isolation:isolate"></path><path d="M271.26,198.69s.54,9.17,9.66,11.88c0,0,5,8.91,10.44,8.29,7.43-.84,12.5-12.27,8.46-22.65C294.57,182.76,273.34,184.53,271.26,198.69Z" style="fill:#263238"></path><path d="M276.21,208.56c-.19-1.41.62-3.94,2.86-3.92s4.36,5.45-1.06,7.47C277.23,212.41,276.61,211.51,276.21,208.56Z" style="fill:#e4897b"></path><path d="M285.72,186.88s-9-1-13.25,3.14c-5,4.83-6.56,9.33.95,14.94,0,0,13.87-6.71,18.83-6.38a52.55,52.55,0,0,1,8.61,1.26C300.56,190.11,290.28,184.26,285.72,186.88Z" style="fill:#263238"></path><path d="M292.75,190.82s3.78-8.93,12.18-6.36,8,16.75,6.81,22.42-.2,9,3,9.81c0,0-5.71,2.8-9.77-7s-4.69-13.63-10.12-12.79S292.75,190.82,292.75,190.82Z" style="fill:#263238"></path><path d="M285.88,216.69s-3.56,2.78-3,5.85c0,0,4.55,5.44,1.47,11.67l15.72-3.9a15.24,15.24,0,0,1-5.26-13.25S291.67,214.3,285.88,216.69Z" style="fill:#e4897b"></path><path d="M290.49,406.33c0-.73-9-.15-9-.15s-5.54,5.63-10.92,6.89-2.37,4.5,3.64,4.5h14.87C293.34,417.57,290.67,413.93,290.49,406.33Z" style="fill:#263238"></path><path d="M276,408.26a.84.84,0,0,1-.22-1,1,1,0,0,1,.48-.6,3.68,3.68,0,0,1,2-.23c-.73-.39-1.38-.86-1.4-1.33,0-.31.18-.57.59-.76a1.38,1.38,0,0,1,1.16,0c1.22.51,2,2.61,2,2.7a.23.23,0,0,1,0,.18l0,0h0l-.08.06a11.37,11.37,0,0,1-3.73,1.14A1.18,1.18,0,0,1,276,408.26Zm.5-1.15a.49.49,0,0,0-.26.31c-.09.35,0,.45.06.48.42.35,2.07-.15,3.4-.71C278.64,407,277.09,406.73,276.45,407.11Zm1.17-2.3c-.12.06-.33.17-.32.3,0,.4,1.31,1.1,2.65,1.61a4,4,0,0,0-1.55-1.93.94.94,0,0,0-.36-.08A.92.92,0,0,0,277.62,404.81Z" style="fill:#407BFF"></path><path d="M279,227.61s6.53-6.92,15.86-7c10.32-.06,11.51,3.39,11.51,3.39S290.56,229.21,279,227.61Z" style="fill:#407BFF"></path><path d="M279,227.61s6.53-6.92,15.86-7c10.32-.06,11.51,3.39,11.51,3.39S290.56,229.21,279,227.61Z" style="fill:#fff;opacity:0.6000000000000001"></path><path d="M274.93,229.52s11.84-7.45,34.84-5c0,0,15.05,15.44,24.17,40.83,0,0,12.29,32.52,9.91,56.61l-56.75,4.75s10.22-42.1,8.56-51.34S274.86,253.83,274.93,229.52Z" style="fill:#407BFF"></path><path d="M343.85,322l-56.75,4.76s10.22-42.11,8.56-51.35c-.93-5.13-7.24-11.21-12.66-19.76a55.2,55.2,0,0,1-5.45-10.93,43.83,43.83,0,0,1-2.62-15.16s11.84-7.45,34.84-5c0,0,15.05,15.45,24.17,40.83C333.94,265.35,346.23,297.88,343.85,322Z" style="fill:#fff;opacity:0.7000000000000001"></path><path d="M283,255.61a55.2,55.2,0,0,1-5.45-10.93,18,18,0,0,1,3.91-5.69S284.9,249.53,283,255.61Z" style="opacity:0.2;isolation:isolate"></path><path d="M303.21,226.2a159,159,0,0,1,18.88,37.58S311.1,230.75,303.21,226.2Z" style="opacity:0.1;isolation:isolate"></path><path d="M274.93,229.52s-18,11.91-20.36,12.11-7.65-17.36-7.65-17.36l-7.09,6s4.26,25.36,8.61,26.85,32.12-10.05,32.12-10.05,1.46-8.45,0-12.9A6.65,6.65,0,0,0,274.93,229.52Z" style="fill:#407BFF"></path><path d="M274.93,229.52s-18,11.91-20.36,12.11-7.65-17.36-7.65-17.36l-7.09,6s4.26,25.36,8.61,26.85,32.12-10.05,32.12-10.05,1.46-8.45,0-12.9A6.65,6.65,0,0,0,274.93,229.52Z" style="fill:#fff;opacity:0.7000000000000001"></path><polygon points="357.54 259.32 353.23 259.32 341.23 329.75 345.54 329.75 357.54 259.32" style="fill:#263238"></polygon><polygon points="341.54 259.32 337.23 259.32 325.23 329.75 329.54 329.75 341.54 259.32" style="fill:#263238"></polygon><polygon points="325.54 259.32 321.23 259.32 309.23 329.75 313.54 329.75 325.54 259.32" style="fill:#263238"></polygon><polygon points="357.54 259.32 353.23 259.32 341.23 329.75 345.54 329.75 357.54 259.32" style="fill:#fff;opacity:0.4;isolation:isolate"></polygon><polygon points="341.54 259.32 337.23 259.32 325.23 329.75 329.54 329.75 341.54 259.32" style="fill:#fff;opacity:0.4;isolation:isolate"></polygon><polygon points="325.54 259.32 321.23 259.32 309.23 329.75 313.54 329.75 325.54 259.32" style="fill:#fff;opacity:0.4;isolation:isolate"></polygon><polygon points="320.7 331.57 320.34 347.14 318.7 417.57 313.29 417.57 311.66 347.14 311.3 331.57 320.7 331.57" style="fill:#263238"></polygon><polygon points="320.7 331.57 320.34 347.14 318.7 417.57 313.29 417.57 311.66 347.14 311.3 331.57 320.7 331.57" style="fill:#fff;opacity:0.4;isolation:isolate"></polygon><polygon points="320.7 331.57 320.34 347.57 311.66 347.57 311.3 331.57 320.7 331.57" style="opacity:0.2;isolation:isolate"></polygon><polygon points="350.08 417.32 345.08 332.67 336.91 332.67 343.91 417.32 350.08 417.32" style="fill:#263238"></polygon><polygon points="343.9 417.32 350.07 417.32 345.54 340.27 345.09 332.57 336.92 332.57 337.55 340.27 343.9 417.32" style="fill:#fff;opacity:0.4;isolation:isolate"></polygon><polygon points="336.92 332.57 337.55 340.57 345.54 340.57 345.09 332.57 336.92 332.57" style="opacity:0.2;isolation:isolate"></polygon><polygon points="288.09 417.32 295.09 332.67 286.92 332.67 281.92 417.32 288.09 417.32" style="fill:#263238"></polygon><polygon points="288.1 417.32 294.45 340.27 295.08 332.57 286.91 332.57 286.46 340.27 281.93 417.32 288.1 417.32" style="fill:#fff;opacity:0.4;isolation:isolate"></polygon><polygon points="295.08 332.57 294.45 340.57 286.46 340.57 286.91 332.57 295.08 332.57" style="opacity:0.2;isolation:isolate"></polygon><path d="M287.54,323.9h56.92a5,5,0,0,1,5,5v6.69a0,0,0,0,1,0,0H282.54a0,0,0,0,1,0,0V328.9A5,5,0,0,1,287.54,323.9Z" style="fill:#407BFF"></path><path d="M350.09,267.45c-6.94-4.2-16.57-4.2-25.78,0-4.65,2-10.16,2.62-12.59-.32h0c-4.15-4.32,3.13-17.13,17.11-21.19,10-2.86,19.91-2.86,28.36,0,11.79,4.06,12.15,16.87,5.67,21.19h0C358.83,270.07,353.64,269.49,350.09,267.45Z" style="fill:#407BFF"></path><path d="M287.54,323.9h56.92a5,5,0,0,1,5,5v6.69a0,0,0,0,1,0,0H282.54a0,0,0,0,1,0,0V328.9A5,5,0,0,1,287.54,323.9Z" style="opacity:0.30000000000000004"></path><path d="M350.09,267.45c-6.94-4.2-16.57-4.2-25.78,0-4.65,2-10.16,2.62-12.59-.32h0c-4.15-4.32,3.13-17.13,17.11-21.19,10-2.86,19.91-2.86,28.36,0,11.79,4.06,12.15,16.87,5.67,21.19h0C358.83,270.07,353.64,269.49,350.09,267.45Z" style="opacity:0.30000000000000004"></path><rect x="279.33" y="329.75" width="73.33" height="5.84" rx="2.01" style="fill:#263238"></rect><rect x="279.33" y="329.75" width="73.33" height="5.84" rx="2.01" style="fill:#fff;opacity:0.6000000000000001;isolation:isolate"></rect></g></svg>